<?xml version="1.0" encoding="UTF-8"?><svg id="Laag_1" xmlns="http://www.w3.org/2000/svg" viewBox="0 0 103.24 156.42"><defs><style>.cls-1{fill:#2179be;}.cls-2{fill:#307bbf;}.cls-3{fill:#b81178;}.cls-4{fill:#45a6b2;}.cls-5{fill:#005a6c;}.cls-6{fill:#277c7f;}.cls-7{fill:#64358c;}.cls-8{fill:#312783;}.cls-9{fill:#93d5f6;}.cls-10{fill:#9a1c57;}.cls-11{fill:#e6007e;}.cls-12{fill:#eb5e27;}.cls-13{fill:#009fe3;}.cls-14{fill:#eb5b25;}</style></defs><path class="cls-14" d="M89.6,19.62c-1.84-4.37-5.07-7.7-8.97-10.03l.07,7.19,7.01,3.95,1.89-1.12Z"/><path class="cls-13" d="M87.79,28.78l3.44,1.94c.01-.08.02-.15.03-.23.16-1.29.21-2.61.13-3.91-.15-2.38-.86-4.72-1.77-6.91,0-.02-.01-.03-.02-.05l-1.89,1.12.08,8.04Z"/><path class="cls-6" d="M87.96,44.87l6.49-3.83c-.65-.83-1.31-1.65-1.97-2.48-.87-1.09-2.07-2.18-2.1-3.66-.03-1.38.63-2.8.86-4.18l-3.44-1.94-6.93,4.09.08,8.05,7.01,3.95Z"/><path class="cls-5" d="M88.04,52.92l4.99,2.81c.28-.26.61-.47.77-.88.32-.83.09-1.75-.13-2.57-.12-.42-.58-1.25-.55-1.67.06-.67.69-.74,1.21-1.01,1.35-.68,4.04-2,3.56-3.91-.19-.75-.88-1.39-1.35-1.99-.67-.85-1.34-1.71-2.01-2.56-.03-.04-.06-.07-.09-.11l-6.49,3.83.08,8.05Z"/><path class="cls-2" d="M88.22,70.24c2.28-.2,4.31-.95,4.8-3.28.06-.28.08-.56.07-.83l-4.89,2.89v1.22Z"/><path class="cls-13" d="M92.34,60.48c.33-.9,1.01-1.57.71-2.58-.19-.65-.8-.96-.32-1.8.08-.14.19-.26.31-.37l-4.99-2.81-6.56,3.88.05,4.97-.36.21.03,3.07,7.01,3.96,4.89-2.89c-.04-1.93-1.43-3.77-.75-5.64Z"/><polygon class="cls-2" points="74.08 49.99 74.44 49.78 79.18 52.45 82.78 50.32 82.73 45.02 78.11 42.42 73.55 45.11 73.56 46.2 74.04 46.47 74.08 49.99"/><polygon class="cls-3" points="81.48 56.8 81.45 53.73 79.18 52.45 74.44 49.78 74.08 49.99 74.08 50.69 74.12 54.52 67.55 58.41 67.59 61.92 74.61 65.87 81.17 61.99 81.53 61.77 81.48 56.8"/><polygon class="cls-8" points="74.08 50.69 74.08 49.99 74.04 46.47 73.56 46.2 67.02 42.53 60.1 46.62 60.15 51.04 64.92 53.73 64.96 57.36 67.19 58.62 67.55 58.41 74.12 54.52 74.08 50.69"/><polygon class="cls-11" points="60.15 51.04 59.21 50.51 53.55 53.85 53.62 60.41 59.34 63.63 64.99 60.29 64.96 57.36 64.92 53.73 60.15 51.04"/><polygon class="cls-14" points="55.24 68.33 55.2 64.68 52.01 62.88 48.87 64.74 48.91 68.4 52.09 70.19 55.24 68.33"/><polygon class="cls-10" points="53.75 86.77 53.71 82.99 50.42 81.13 47.15 83.05 47.19 86.84 50.49 88.7 53.75 86.77"/><polygon class="cls-7" points="52.52 37.78 47.86 35.16 43.27 37.87 43.33 43.22 47.97 45.84 52.58 43.12 52.52 37.78"/><polygon class="cls-14" points="55.35 113.97 60.04 116.61 64.68 113.87 64.62 108.48 59.93 105.83 55.29 108.58 55.35 113.97"/><polygon class="cls-10" points="49.77 128.09 52.15 129.43 54.5 128.04 54.47 125.31 52.1 123.97 49.75 125.36 49.77 128.09"/><polygon class="cls-11" points="85.83 126.78 80.82 123.95 75.86 126.88 75.92 132.63 80.94 135.46 85.89 132.53 85.83 126.78"/><polygon class="cls-14" points="74.41 138.2 74.37 134.54 71.18 132.74 68.04 134.61 68.07 138.26 71.26 140.06 74.41 138.2"/><polygon class="cls-7" points="78.41 115.63 73.71 112.99 69.08 115.72 69.14 121.11 73.83 123.76 78.47 121.02 78.41 115.63"/><polygon class="cls-4" points="84.23 27.4 84.17 21.46 78.99 18.54 73.88 21.57 73.88 21.57 73.94 27.51 79.12 30.42 84.23 27.4"/><polygon class="cls-8" points="59.7 32.11 55.69 34.48 54.59 33.85 54.65 39.74 60.55 43.06 66.38 39.62 66.33 35.38 59.7 31.65 59.7 32.11"/><polygon class="cls-13" points="59.7 32.11 59.7 31.65 58.23 30.82 58.23 30.82 58.18 26.63 55.6 25.17 51.6 27.54 51.65 32.19 54.59 33.85 55.69 34.48 59.7 32.11"/><polygon class="cls-2" points="73.88 21.57 73.88 21.57 65.97 17.11 58.13 21.73 58.19 26.73 58.23 30.82 58.23 30.82 59.66 31.63 66.14 35.27 66.15 35.28 73.98 30.66 73.94 27.51 73.94 27.51 73.88 21.57"/><polygon class="cls-1" points="73.77 20.88 73.77 20.89 73.83 26.97 73.84 26.97 73.77 20.89 73.77 20.88"/><polygon class="cls-4" points="24.48 132.6 24.64 126.79 19.7 123.75 14.59 126.52 14.43 132.32 19.38 135.36 24.48 132.6"/><polygon class="cls-6" points="22.91 109.25 18.66 106.86 14.47 109.33 14.52 114.21 18.76 116.6 22.96 114.12 22.91 109.25"/><polygon class="cls-8" points="36.09 121.39 31.72 123.97 29.77 122.87 29.83 128.82 36.26 132.43 42.6 128.69 42.55 123.53 36.07 119.89 36.09 121.39"/><polygon class="cls-13" points="36.07 119.89 36.07 119.89 36.04 117.73 36.03 116.32 31.62 113.83 27.26 116.42 27.31 121.48 29.77 122.87 31.72 123.97 36.09 121.39 36.07 119.89"/><polygon class="cls-13" points="88.5 96.58 88.5 96.57 88.48 94.66 88.46 93.41 84.55 91.21 80.69 93.5 80.73 97.99 82.91 99.22 84.65 100.2 88.52 97.91 88.5 96.58"/><polygon class="cls-3" points="52.59 96.69 48.22 94.22 47.85 94.44 47.9 98.97 41.33 102.85 41.37 106.36 42.25 106.86 43.99 105.83 50.13 109.29 55.31 106.22 55.28 103.3 52.64 101.81 52.59 96.69"/><polygon class="cls-4" points="63.19 101.7 63.12 95.62 57.82 92.63 52.58 95.73 52.59 96.69 52.64 101.81 55.28 103.3 57.95 104.8 63.19 101.7"/><polygon class="cls-6" points="90.1 111.63 90.03 104.7 84 101.31 78.04 104.83 78.11 111.75 84.14 115.15 90.1 111.63"/><polygon class="cls-4" points="76.23 94.01 76.15 86.05 69.21 82.14 62.35 86.19 62.37 87.45 62.44 94.15 65.88 96.1 69.38 98.07 76.23 94.01"/><polygon class="cls-8" points="47.85 94.44 47.82 90.92 40.8 86.97 33.88 91.06 33.95 98.02 35.2 97.28 40.21 100.1 40.23 102.65 40.97 103.07 41.33 102.85 47.9 98.97 47.85 94.44"/><polygon class="cls-11" points="35.2 97.28 33.95 98.02 30.24 100.21 30.3 105.95 35.32 108.78 40.27 105.85 40.23 102.65 40.21 100.1 35.2 97.28"/><polygon class="cls-2" points="52.1 110.4 50.13 109.29 43.99 105.83 42.25 106.86 35.97 110.57 36.03 116.32 36.04 116.32 36.05 117.72 36.07 119.89 42.55 123.53 44.19 124.45 52.2 119.72 52.1 110.4"/><polygon class="cls-1" points="36.05 117.72 36.04 116.32 36.03 116.32 36.04 117.73 36.05 117.72"/><polygon class="cls-1" points="36.07 119.89 36.07 119.89 36.05 117.72 36.04 117.73 36.07 119.89"/><polygon class="cls-8" points="43.29 11.77 45 10.76 44.97 8.78 43.25 7.81 41.55 8.82 41.57 10.8 43.29 11.77"/><polygon class="cls-9" points="36.18 36.74 39.79 34.6 39.75 30.41 36.1 28.35 32.48 30.48 32.53 34.68 36.18 36.74"/><polygon class="cls-8" points="41.53 22.41 41.52 21.35 38.46 19.62 35.43 21.41 35.47 24.93 38.54 26.65 40.22 25.65 40.19 23.2 41.53 22.41"/><polygon class="cls-2" points="48.95 23.11 44.54 20.63 41.53 22.41 40.19 23.2 40.22 25.65 40.25 28.26 44.65 30.75 49.01 28.17 48.95 23.11"/><polygon class="cls-8" points="81.94 147.44 78.49 145.5 75.08 147.51 75.12 151.48 78.57 153.42 81.98 151.41 81.94 147.44"/><polygon class="cls-8" points="27.66 96.89 25.15 95.48 22.68 96.94 22.71 99.82 25.21 101.23 27.69 99.77 27.66 96.89"/><polygon class="cls-9" points="54.04 5.98 52.02 4.84 50.02 6.02 50.04 8.35 52.07 9.49 54.07 8.31 54.04 5.98"/><polygon class="cls-9" points="66.83 8.23 62.36 5.71 57.94 8.32 58 13.45 62.46 15.97 66.88 13.36 66.83 8.23"/><polygon class="cls-4" points="43.91 48.56 41.21 47.04 38.55 48.62 38.58 51.71 41.28 53.23 43.94 51.66 43.91 48.56"/><polygon class="cls-9" points="9.95 119.92 7.25 118.4 4.58 119.97 4.62 123.07 7.31 124.59 9.98 123.01 9.95 119.92"/><polygon class="cls-9" points="85.39 114.42 84.14 115.15 83.04 114.53 81.65 115.37 81.72 118.41 84.38 119.87 86.98 118.3 86.91 115.26 85.39 114.42"/><polygon class="cls-8" points="74.62 84.78 74.62 84.78 74.62 84.78 74.62 84.78"/><polygon class="cls-2" points="81.52 102.57 81.47 97.7 81.44 95.19 80.72 94.79 80.71 94.79 80.71 94.78 78.57 93.57 74.09 91.06 74.08 91.07 66.84 95.34 66.86 96.64 66.93 103.77 74.27 107.9 77.96 105.72 81.53 103.62 81.52 102.57"/><polygon class="cls-1" points="80.71 94.78 80.71 94.79 80.72 94.79 80.71 94.78"/><path class="cls-11" d="M77.78,71.88c.88-1.65,2.83-1.63,4.54-1.69,1.5-.05,3.8.23,5.89.05v-1.22s-7.02-3.96-7.02-3.96l-5.96,3.53,2.53,1.42.02,1.86Z"/><path class="cls-12" d="M75.8,74.47c-.02-.2-.01-.1,0,0h0Z"/><path class="cls-12" d="M75.8,74.47h0c0,.1.02.19,0,0Z"/><path class="cls-14" d="M71.9,80.83l5.94-3.51-.06-5.45-.02-1.86-2.53-1.42-3.85-2.17-6.29,3.73.06,6.15,6.74,3.8v.74ZM75.8,74.47c.02.19,0,.1,0,0,0-.1-.02-.2,0,0Z"/><polygon class="cls-3" points="71.94 84.15 71.9 80.83 71.9 80.09 65.16 76.29 64.85 76.12 63.02 77.2 63.06 81.14 58.79 83.67 57.91 83.18 57.97 88.32 62.4 90.82 65.02 92.3 71.98 88.18 71.94 84.15"/><polygon class="cls-11" points="63.06 81.14 63.02 77.2 63.01 76.17 58.69 73.73 54.41 76.26 54.46 81.23 57.91 83.18 58.79 83.67 63.06 81.14"/><polygon class="cls-3" points="40.38 78.72 45.22 81.45 50 78.62 49.94 73.06 45.11 70.33 40.32 73.16 40.38 78.72"/><polygon class="cls-3" points="66.97 17.68 73.89 21.57 80.71 17.53 80.62 9.6 73.72 5.7 66.88 9.74 66.97 17.68"/><polygon class="cls-2" points="68.21 125.28 63.88 122.85 59.61 125.37 59.67 130.34 63.99 132.78 68.26 130.25 68.21 125.28"/><polygon class="cls-8" points="81.64 90.99 81.6 86.62 77.79 84.48 74.03 86.7 74.08 91.07 77.89 93.21 81.64 90.99"/></svg>