<?xml version="1.0" encoding="UTF-8" standalone="no"?>
<svg
   viewBox="0 0 96 96"
   id="Icons_Baby"
   overflow="hidden"
   version="1.1"
   sodipodi:docname="image47_hexagon.svg"
   inkscape:version="1.4.2 (f4327f4, 2025-05-13)"
   xmlns:inkscape="http://www.inkscape.org/namespaces/inkscape"
   xmlns:sodipodi="http://sodipodi.sourceforge.net/DTD/sodipodi-0.dtd"
   xmlns="http://www.w3.org/2000/svg"
   xmlns:svg="http://www.w3.org/2000/svg">
  <defs
     id="defs1" />
  <sodipodi:namedview
     id="namedview1"
     pagecolor="#ffffff"
     bordercolor="#000000"
     borderopacity="0.25"
     inkscape:showpageshadow="2"
     inkscape:pageopacity="0.0"
     inkscape:pagecheckerboard="0"
     inkscape:deskcolor="#d1d1d1"
     inkscape:zoom="7.65625"
     inkscape:cx="48.065306"
     inkscape:cy="40.816327"
     inkscape:window-width="1920"
     inkscape:window-height="974"
     inkscape:window-x="-11"
     inkscape:window-y="-11"
     inkscape:window-maximized="1"
     inkscape:current-layer="Icons_Baby" />
  <style
     id="style1">
.MsftOfcThm_Accent2_Fill_v2 {
 fill:#93D5F6; 
}
</style>
  <path
     sodipodi:type="star"
     style="fill:#29235c"
     id="path2"
     inkscape:flatsided="true"
     sodipodi:sides="6"
     sodipodi:cx="93.518364"
     sodipodi:cy="87.11837"
     sodipodi:r1="57.4958"
     sodipodi:r2="49.792824"
     sodipodi:arg1="-2.6261095"
     sodipodi:arg2="-2.1025108"
     inkscape:rounded="0"
     inkscape:randomized="0"
     d="M 43.493876,58.775512 93.051755,29.624463 143.07624,57.967321 143.54285,115.46123 93.984973,144.61228 43.960485,116.26942 Z"
     transform="matrix(0.82587181,0.00855946,-0.00881743,0.83327102,-28.466026,-25.24086)" />
  <ellipse
     cx="48"
     cy="21.723969"
     class="MsftOfcThm_Accent2_Fill_v2"
     fill="#93D5F6"
     id="circle1"
     style="stroke-width:0.897825"
     rx="11.28125"
     ry="11.16468" />
  <path
     d="m 56.1225,59.237294 c 0,0.08932 0,0.178635 0,0.267953 -3.15875,0.267952 -5.50525,2.858158 -5.415,5.984268 0,0.893175 0.27075,1.786349 0.722,2.500889 -0.99275,0.35727 -2.25625,0.535905 -3.61,0.535905 -1.444,0 -2.61725,-0.178635 -3.51975,-0.535905 1.35375,-1.964984 1.35375,-4.644507 -0.09025,-6.698809 -1.083,-1.429079 -2.61725,-2.322253 -4.332,-2.500888 v -1.786349 h 16.245 z m 17.328,-16.345092 -15.523,-8.038571 c -0.361,-0.08932 -0.722,-0.178634 -1.083,-0.178634 h -16.967 c -0.45125,0 -0.81225,0.08932 -1.2635,0.178634 l -16.245,8.931745 c -1.89525,0.71454 -2.79775,2.768841 -2.166,4.55519 0.5415,1.518396 1.9855,2.411571 3.4295,2.411571 0.45125,0 0.81225,-0.08932 1.2635,-0.178635 L 36.2675,44.67855 c 0,0 0,14.737379 0,15.005331 -0.1805,0.08932 -7.4005,5.091095 -7.4005,5.091095 -1.53425,1.071809 -1.9855,3.215428 -0.99275,4.823142 l 6.3175,9.824919 c 1.083,1.697032 3.33925,2.143619 4.96375,1.071809 1.6245,-1.071809 2.166,-3.304745 1.083,-4.912459 L 37.17,70.669927 h 1.9855 c 0.63175,0 1.2635,-0.08932 1.89525,-0.267952 1.6245,1.071809 3.7905,1.697031 6.6785,1.697031 2.7075,0 4.8735,-0.625222 6.58825,-1.518396 0.722,0.35727 1.6245,0.446587 2.527,0.446587 l 1.6245,-0.08932 -3.249,4.465872 c -1.17325,1.607714 -0.81225,3.84065 0.81225,5.001777 1.6245,1.161127 3.88075,0.803857 5.054,-0.803857 l 7.22,-9.824919 c 0.09025,-0.08932 0.1805,-0.178635 0.1805,-0.35727 0.99275,-1.697031 0.361,-3.929968 -1.35375,-4.912459 l -7.4005,-4.108603 c 0,-0.35727 0,-16.07714 0,-16.07714 l 11.552,5.448364 c 0.361,0.08932 0.722,0.178635 1.083,0.178635 1.53425,0 2.97825,-0.982492 3.4295,-2.500889 0.63175,-1.964983 -0.45125,-3.929967 -2.3465,-4.555189 z"
     class="MsftOfcThm_Accent2_Fill_v2"
     fill="#93D5F6"
     id="path1"
     style="stroke-width:0.897825" />
</svg>
