<?xml version="1.0" encoding="UTF-8" standalone="no"?>
<svg
   viewBox="0 0 96 96"
   id="Icons_Nerve"
   overflow="hidden"
   version="1.1"
   sodipodi:docname="image45_hexagon.svg"
   inkscape:version="1.4.2 (f4327f4, 2025-05-13)"
   xmlns:inkscape="http://www.inkscape.org/namespaces/inkscape"
   xmlns:sodipodi="http://sodipodi.sourceforge.net/DTD/sodipodi-0.dtd"
   xmlns="http://www.w3.org/2000/svg"
   xmlns:svg="http://www.w3.org/2000/svg">
  <defs
     id="defs3" />
  <sodipodi:namedview
     id="namedview3"
     pagecolor="#ffffff"
     bordercolor="#000000"
     borderopacity="0.25"
     inkscape:showpageshadow="2"
     inkscape:pageopacity="0.0"
     inkscape:pagecheckerboard="0"
     inkscape:deskcolor="#d1d1d1"
     inkscape:zoom="7.65625"
     inkscape:cx="43.755102"
     inkscape:cy="42.253061"
     inkscape:window-width="1920"
     inkscape:window-height="974"
     inkscape:window-x="-11"
     inkscape:window-y="-11"
     inkscape:window-maximized="1"
     inkscape:current-layer="Icons_Nerve" />
  <style
     id="style1">
.MsftOfcThm_Accent2_Fill_v2 {
 fill:#93D5F6; 
}
</style>
  <path
     sodipodi:type="star"
     style="fill:#29235c"
     id="path4"
     inkscape:flatsided="true"
     sodipodi:sides="6"
     sodipodi:cx="0.39183673"
     sodipodi:cy="3.0040815"
     sodipodi:r1="60.349358"
     sodipodi:r2="52.264076"
     sodipodi:arg1="0.52854181"
     sodipodi:arg2="1.0521406"
     inkscape:rounded="0"
     inkscape:randomized="0"
     d="M 52.506121,33.436734 0.093529,63.352702 -52.020755,32.92005 -51.722448,-27.428571 0.69014447,-57.344539 52.804429,-26.911887 Z"
     transform="matrix(0.80444089,0,0,0.79238334,47.619483,45.619615)" />
  <path
     d="m 34.428829,50.924015 c -1.624939,-0.464269 -3.327257,0.541647 -3.791526,2.166586 0,0 0,0 0,0 -0.232134,1.083294 -0.38689,2.243966 -0.464269,3.327259 -0.07738,1.702318 1.23805,3.172502 2.940368,3.24988 0,0 0,0 0,0 0.07738,0 0.07738,0 0.154756,0 1.62494,0 3.017745,-1.315428 3.095124,-2.940368 0,-0.696403 0.07738,-1.392805 0.232134,-2.01183 0.464269,-1.624941 -0.464269,-3.327259 -2.166587,-3.791527 z"
     class="MsftOfcThm_Accent2_Fill_v2"
     fill="#93D5F6"
     id="path1"
     style="stroke-width:0.773781" />
  <path
     d="m 33.577671,60.673654 c -1.547562,-0.77378 -3.404637,-0.154756 -4.178417,1.392807 0,0 0,0 0,0 -0.309512,0.541646 -0.619025,1.083292 -1.083294,1.470184 -0.541646,0.619024 -0.851159,1.470183 -0.773781,2.321343 -0.154756,0.154756 -0.309512,0.309512 -0.464268,0.464268 -0.232135,0.154756 -0.386891,0.38689 -0.619025,0.541646 -0.464268,0.386891 -0.928537,0.773781 -1.392806,1.083293 -5.029576,0 -6.190247,-2.940367 -6.190247,-3.017745 -0.309512,-1.005915 -1.392806,-1.547561 -2.398722,-1.238049 -1.005915,0.309512 -1.547561,1.392805 -1.238049,2.39872 0.773781,2.01183 2.321343,3.636771 4.255796,4.565308 -1.315428,0.38689 -2.785611,0.38689 -4.101039,0.07738 -1.005916,-0.309512 -2.089209,0.232136 -2.4761,1.23805 -0.309512,1.005916 0.232134,2.089209 1.160671,2.398721 1.005916,0.309513 2.011832,0.464269 3.017746,0.386891 1.160672,0 2.398722,-0.154756 3.482015,-0.464269 -0.386891,0.928537 -0.619025,1.857074 -0.696403,2.86299 -0.07738,1.083294 0.773781,2.01183 1.779697,2.01183 0.07738,0 0.07738,0 0.154756,0 1.005915,0 1.857074,-0.77378 1.934451,-1.779696 0.154756,-2.785611 3.714149,-6.422381 6.499761,-8.666347 0.154756,0 0.309512,0 0.38689,0 0.851159,0 1.702318,-0.386889 2.321343,-1.005914 0.773781,-0.85116 1.470183,-1.857074 2.01183,-2.940368 0.773781,-1.547562 0.154756,-3.404636 -1.392805,-4.10104 z"
     class="MsftOfcThm_Accent2_Fill_v2"
     fill="#93D5F6"
     id="path2"
     style="stroke-width:0.773781" />
  <circle
     cx="57.951763"
     cy="37.460224"
     r="2.7082334"
     class="MsftOfcThm_Accent2_Fill_v2"
     fill="#93D5F6"
     id="circle2"
     style="stroke-width:0.773781" />
  <path
     d="m 46.964081,35.680531 c 0,0.154756 0,0.232133 0,0.38689 -0.07738,0.541647 -0.07738,1.083293 -0.07738,1.62494 -0.464268,2.940368 -2.089209,5.6486 -4.48793,7.505675 -0.928536,-0.773781 -2.089208,-0.928537 -3.172502,-0.464268 -0.928537,0.38689 -1.857074,0.851159 -2.785611,1.392805 -1.470184,0.851159 -1.934452,2.785611 -1.083293,4.255796 0.851159,1.470183 2.785611,1.934452 4.255795,1.083293 0.696403,-0.386891 1.392806,-0.696404 2.089208,-1.005916 1.160672,-0.541646 1.934453,-1.702318 1.857074,-2.940367 1.934453,-0.696403 6.035492,-1.857075 9.36275,0 0,0 0.07738,0 0.07738,0.07738 1.470184,0.619025 2.553477,1.934452 2.166587,3.482014 -0.232135,1.083294 -0.696403,2.243965 -1.23805,3.482014 -1.238049,3.095124 -2.630855,6.577138 -2.321343,11.451959 0.07738,1.005915 0.928538,1.779695 1.934453,1.779695 0.232134,0 0.38689,0 0.619025,-0.07738 0.851159,-0.309513 1.392805,-1.160672 1.315427,-2.08921 -0.07738,-2.166586 0.232135,-4.41055 0.928537,-6.499759 0.773781,2.01183 2.01183,3.868904 3.482014,5.416467 0.773782,0.77378 2.011831,0.696403 2.708234,-0.07738 0.696403,-0.773781 0.696403,-2.011831 -0.07738,-2.708234 -2.476099,-2.476099 -3.559392,-6.577137 -3.946284,-8.202078 -0.07738,-0.232133 0,-0.464269 0.07738,-0.696402 0.232134,-0.696403 0.38689,-1.470184 0.541646,-2.243966 0.154757,-1.083292 0.928538,-1.934451 2.011831,-2.243963 0.309512,-0.07738 0.619025,-0.154757 0.928537,-0.309513 0.464269,-0.154756 0.928538,-0.38689 1.392805,-0.619025 1.23805,-0.619025 2.708235,-0.541647 3.868906,0.309513 3.249879,2.476099 5.725978,5.803356 7.041406,9.672261 0.386891,1.005916 1.470183,1.547562 2.476099,1.160672 0.07738,0 0.154756,-0.07738 0.309512,-0.154756 0.851159,-0.464269 1.23805,-1.547563 0.851159,-2.398722 -0.851159,-2.321343 -2.01183,-4.487929 -3.404636,-6.422381 1.160672,0.38689 2.243965,0.851158 3.327259,1.392806 0.928537,0.541646 2.089208,0.232133 2.630855,-0.696403 0,-0.07738 0.07738,-0.07738 0.07738,-0.154756 0.464269,-0.928538 0.07738,-2.089209 -0.851158,-2.553478 -3.017749,-1.702315 -7.04141,-2.630853 -9.207997,-3.095122 -0.773781,-0.154756 -1.392806,-0.619024 -1.702318,-1.238049 l -0.154756,-0.232135 c -0.309513,-0.619024 -0.38689,-1.315427 -0.154757,-2.01183 0.386892,-1.238049 0.619025,-2.476099 0.541648,-3.791526 -0.07738,-2.089209 1.160671,-3.946284 3.017745,-4.642686 l 0.154756,-0.07738 c 3.327259,-0.773781 8.666346,-0.38689 9.285371,-0.38689 0.541647,0.07738 1.005916,-0.154757 1.392806,-0.464269 0.773781,-0.696403 0.928537,-1.934452 0.232135,-2.708234 -0.309512,-0.386889 -0.851159,-0.619025 -1.315428,-0.696402 0,0 -2.321343,-0.154756 -4.952198,-0.07738 0.851159,-1.083292 1.547561,-2.321342 1.857074,-3.63677 0.309512,-0.928536 -0.154756,-2.01183 -1.083293,-2.39872 -1.005915,-0.386891 -2.089208,0.07738 -2.553477,1.083292 0,0.07738 -0.07738,0.154757 -0.07738,0.232136 -0.696403,2.630855 -3.714149,4.797441 -4.565307,5.339087 -0.154757,0.07738 -0.232135,0.154757 -0.386891,0.232135 l -1.23805,0.541647 c -1.392802,0.464273 -2.862986,0.232139 -3.946279,-0.696398 -0.773781,-0.619025 -1.547562,-1.083293 -2.476099,-1.470184 -0.773781,-0.309512 -1.315428,-0.928537 -1.624941,-1.702319 -0.232133,-0.696402 -0.232133,-1.547561 0.154756,-2.166586 l 0.386892,-0.77378 c 1.702318,-2.785612 3.63677,-5.880736 2.785611,-11.297203 -0.154756,-1.005915 -1.005916,-1.7796968 -2.089209,-1.7023168 -1.083294,0.07738 -1.857074,1.0059138 -1.779696,2.0892078 0,0.07738 0,0.154756 0,0.154756 0.309513,1.702319 0.232134,3.404637 -0.309512,5.029576 -0.464269,-1.857074 -1.624941,-3.559392 -3.172502,-4.642685 -0.696403,-0.696403 -1.779696,-0.541647 -2.476099,0.154756 -0.696403,0.851159 -0.619025,2.01183 0.232134,2.708233 0.07738,0.07738 0.154756,0.07738 0.232134,0.154757 1.624941,1.005914 2.166587,4.101038 2.243965,6.654515 0,0.386891 -0.07738,0.696404 -0.232134,1.083294 -0.309513,0.541646 -0.541646,1.083293 -0.773782,1.702318 0,0.07738 -0.07738,0.154756 -0.07738,0.232134 -0.309512,0.928537 -1.005915,1.62494 -1.934453,1.934452 -1.392805,0.541647 -2.630855,1.315428 -3.714148,2.321343 -0.773781,0.696403 -2.011831,0.773781 -2.862989,0.154756 -1.238049,-0.77378 -2.321343,-1.702317 -3.404636,-2.708233 -1.624941,-1.547561 -2.089209,-3.868905 -1.315428,-5.880735 0.464268,-1.005915 0,-2.089208 -1.005915,-2.553477 -0.928537,-0.464268 -2.089209,0 -2.553478,0.928537 -1.160671,2.708233 -0.928537,5.880735 0.619025,8.434213 -1.005914,-0.386891 -2.089208,-0.773782 -3.24988,-1.315428 -0.541646,-0.232135 -1.083293,-0.232135 -1.62494,-0.07738 -0.464268,0.154757 -0.851159,0.541647 -1.083292,1.005916 -0.386892,1.005915 0,2.089208 0.928536,2.553477 4.952198,2.243965 7.969944,2.785611 9.672262,2.86299 0.154756,0 0.309512,0 0.464268,0.07738 l 0.386891,0.07738 c 0.154756,0.07738 0.309513,0.154756 0.464269,0.232133 0.619025,0.541648 1.005914,1.315428 1.083293,2.166587 z m 10.987689,6.809272 c -2.785611,0 -5.029576,-2.321343 -5.029576,-5.106954 0,-2.708234 2.321343,-4.952198 4.952198,-4.952198 2.785612,-0.07738 5.106954,2.243964 5.106954,5.029576 v 0 c 0,2.785611 -2.243965,5.029576 -5.029576,5.029576 z"
     class="MsftOfcThm_Accent2_Fill_v2"
     fill="#93D5F6"
     id="path3"
     style="stroke-width:0.773781" />
</svg>
