<?xml version="1.0" encoding="UTF-8"?><svg id="Laag_1" xmlns="http://www.w3.org/2000/svg" viewBox="0 0 85.04 97.04"><defs><style>.cls-1{fill:#2179be;}.cls-2{fill:#307bbf;}.cls-3{fill:#b81178;}.cls-4{fill:#45a6b2;}.cls-5{fill:#005a6c;}.cls-6{fill:#277c7f;}.cls-7{fill:#64358c;}.cls-8{fill:#312783;}.cls-9{fill:#93d5f6;}.cls-10{fill:#9a1c57;}.cls-11{fill:#e6007e;}.cls-12{fill:#eb5e27;}.cls-13{fill:#009fe3;}.cls-14{fill:#eb5b25;}</style></defs><path class="cls-14" d="M63.41,15.95c-1.32-3.14-3.64-5.52-6.44-7.2l.05,5.16,5.03,2.84,1.36-.8Z"/><path class="cls-13" d="M62.11,22.52l2.47,1.39c0-.05.02-.11.02-.16.12-.93.15-1.87.09-2.81-.11-1.71-.61-3.39-1.27-4.96,0-.01,0-.02-.01-.03l-1.36.8.06,5.77Z"/><path class="cls-6" d="M62.23,34.07l4.65-2.75c-.47-.59-.94-1.19-1.41-1.78-.62-.78-1.49-1.56-1.51-2.62-.02-.99.45-2.01.61-3l-2.47-1.39-4.97,2.94.06,5.78,5.03,2.83Z"/><path class="cls-5" d="M62.29,39.84l3.58,2.02c.2-.19.44-.34.55-.63.23-.6.07-1.26-.09-1.85-.08-.3-.42-.9-.39-1.2.04-.48.5-.53.87-.72.97-.49,2.9-1.44,2.55-2.8-.14-.54-.63-1-.97-1.43-.48-.61-.96-1.22-1.44-1.83-.02-.03-.04-.05-.06-.08l-4.65,2.75.06,5.78Z"/><path class="cls-2" d="M62.42,52.27c1.64-.14,3.1-.68,3.44-2.35.04-.2.06-.4.05-.6l-3.51,2.08v.88Z"/><path class="cls-13" d="M65.38,45.27c.23-.64.72-1.12.51-1.85-.14-.47-.57-.69-.23-1.29.06-.1.14-.19.22-.26l-3.58-2.02-4.71,2.79.04,3.57-.26.15.02,2.2,5.03,2.84,3.51-2.08c-.03-1.39-1.03-2.71-.54-4.05Z"/><polygon class="cls-2" points="52.27 37.74 52.53 37.59 55.93 39.51 58.52 37.98 58.48 34.17 55.16 32.31 51.89 34.24 51.9 35.02 52.24 35.22 52.27 37.74"/><polygon class="cls-3" points="57.58 42.63 57.56 40.43 55.93 39.51 52.53 37.59 52.27 37.74 52.28 38.24 52.3 40.99 47.59 43.78 47.62 46.3 52.65 49.14 57.36 46.35 57.62 46.2 57.58 42.63"/><polygon class="cls-8" points="52.28 38.24 52.27 37.74 52.24 35.22 51.9 35.02 47.21 32.39 42.24 35.32 42.27 38.49 45.7 40.42 45.73 43.03 47.33 43.93 47.59 43.78 52.3 40.99 52.28 38.24"/><polygon class="cls-11" points="42.27 38.49 41.6 38.11 37.54 40.51 37.59 45.22 41.7 47.53 45.75 45.13 45.73 43.03 45.7 40.42 42.27 38.49"/><polygon class="cls-14" points="38.76 50.9 38.73 48.28 36.44 46.99 34.18 48.33 34.21 50.95 36.49 52.24 38.76 50.9"/><polygon class="cls-10" points="37.69 64.14 37.66 61.42 35.29 60.08 32.95 61.47 32.98 64.19 35.35 65.52 37.69 64.14"/><polygon class="cls-7" points="36.8 28.98 33.46 27.1 30.17 29.05 30.2 32.88 33.54 34.76 36.84 32.81 36.8 28.98"/><polygon class="cls-4" points="59.56 21.53 59.51 17.27 55.8 15.17 52.13 17.34 52.13 17.34 52.18 21.61 55.89 23.7 59.56 21.53"/><polygon class="cls-8" points="41.96 24.91 39.08 26.61 38.29 26.16 38.33 30.39 42.56 32.77 46.74 30.3 46.71 27.26 41.95 24.58 41.96 24.91"/><polygon class="cls-13" points="41.96 24.91 41.95 24.58 40.9 23.99 40.9 23.98 40.87 20.98 39.01 19.93 36.14 21.63 36.17 24.97 38.29 26.16 39.08 26.61 41.96 24.91"/><polygon class="cls-2" points="52.13 17.34 52.13 17.34 46.45 14.15 40.83 17.46 40.87 21.05 40.9 23.98 40.9 23.99 41.93 24.57 46.57 27.18 46.59 27.19 52.2 23.87 52.18 21.61 52.17 21.61 52.13 17.34"/><polygon class="cls-1" points="52.05 16.85 52.05 16.86 52.09 21.22 52.1 21.22 52.05 16.86 52.05 16.85"/><polygon class="cls-13" points="62.62 71.17 62.62 71.17 62.6 69.8 62.59 68.9 59.79 67.32 57.01 68.96 57.05 72.19 58.61 73.07 59.85 73.77 62.63 72.13 62.62 71.17"/><polygon class="cls-4" points="44.45 74.85 44.41 70.48 40.61 68.34 36.85 70.56 36.85 71.25 36.89 74.93 38.78 75.99 40.7 77.07 44.45 74.85"/><polygon class="cls-8" points="33.48 72.88 33.42 67.11 28.39 64.28 23.42 67.21 23.43 68.13 23.48 72.98 25.98 74.39 28.51 75.82 33.48 72.88"/><polygon class="cls-4" points="53.82 69.33 53.76 63.61 48.78 60.81 43.86 63.72 43.87 64.62 43.92 69.43 46.39 70.83 48.9 72.24 53.82 69.33"/><polygon class="cls-8" points="30.18 10.31 31.4 9.59 31.39 8.17 30.15 7.48 28.93 8.2 28.94 9.62 30.18 10.31"/><polygon class="cls-9" points="25.08 28.23 27.67 26.7 27.64 23.69 25.02 22.21 22.42 23.74 22.45 26.75 25.08 28.23"/><polygon class="cls-8" points="28.92 17.95 28.91 17.19 26.71 15.95 24.54 17.23 24.57 19.75 26.77 20.99 27.98 20.28 27.96 18.52 28.92 17.95"/><polygon class="cls-2" points="34.24 18.45 31.08 16.67 28.92 17.95 27.96 18.52 27.98 20.28 27.99 22.15 31.15 23.93 34.28 22.08 34.24 18.45"/><polygon class="cls-8" points="54.74 78.84 54.75 79.61 56.94 80.84 59.12 79.56 59.09 77.04 56.89 75.8 55.68 76.52 55.7 78.28 54.74 78.84"/><polygon class="cls-2" points="49.41 78.34 52.58 80.12 54.74 78.84 55.7 78.28 55.68 76.52 55.66 74.65 52.5 72.86 49.38 74.71 49.41 78.34"/><polygon class="cls-8" points="18.96 71.4 17.16 70.38 15.39 71.43 15.41 73.5 17.21 74.51 18.98 73.46 18.96 71.4"/><polygon class="cls-9" points="37.89 6.16 36.44 5.34 35.01 6.19 35.03 7.86 36.48 8.68 37.91 7.83 37.89 6.16"/><polygon class="cls-9" points="47.07 7.77 43.86 5.97 40.69 7.84 40.73 11.52 43.94 13.33 47.11 11.46 47.07 7.77"/><polygon class="cls-4" points="30.62 36.72 28.69 35.63 26.78 36.76 26.8 38.98 28.73 40.07 30.65 38.94 30.62 36.72"/><polygon class="cls-8" points="52.66 62.7 52.66 62.7 52.66 62.7 52.66 62.7"/><polygon class="cls-1" points="57.03 69.88 57.03 69.89 57.04 69.89 57.03 69.88"/><path class="cls-11" d="M54.93,53.44c.63-1.18,2.03-1.17,3.26-1.21,1.07-.04,2.73.17,4.23.04v-.88s-5.04-2.84-5.04-2.84l-4.28,2.53,1.81,1.02v1.34Z"/><path class="cls-12" d="M53.51,55.31c-.01-.14,0-.07,0,0h0Z"/><path class="cls-12" d="M53.51,55.31h0c0,.07.01.14,0,0Z"/><path class="cls-14" d="M50.71,59.87l4.26-2.52-.04-3.91v-1.34s-1.83-1.02-1.83-1.02l-2.76-1.56-4.52,2.67.05,4.41,4.83,2.73v.53ZM53.51,55.31c.01.14,0,.07,0,0,0-.07-.01-.14,0,0Z"/><polygon class="cls-3" points="50.74 62.25 50.71 59.87 50.71 59.34 45.87 56.62 45.65 56.49 44.34 57.27 44.37 60.1 41.3 61.91 40.67 61.55 40.71 65.25 43.89 67.04 45.77 68.1 50.77 65.14 50.74 62.25"/><polygon class="cls-11" points="44.37 60.1 44.34 57.27 44.33 56.53 41.23 54.78 38.15 56.59 38.19 60.16 40.67 61.55 41.3 61.91 44.37 60.1"/><polygon class="cls-3" points="28.09 58.36 31.56 60.31 34.99 58.29 34.95 54.3 31.48 52.34 28.05 54.37 28.09 58.36"/><polygon class="cls-3" points="50.81 86.74 54.29 88.7 57.72 86.67 57.68 82.68 54.21 80.72 50.77 82.75 50.81 86.74"/><polygon class="cls-3" points="47.17 14.55 52.13 17.34 57.03 14.45 56.97 8.75 52.02 5.96 47.11 8.86 47.17 14.55"/><polygon class="cls-8" points="57.7 67.16 57.67 64.03 54.94 62.49 52.24 64.08 52.27 67.22 55 68.76 57.7 67.16"/></svg>