<?xml version="1.0" encoding="UTF-8"?><svg id="Laag_1" xmlns="http://www.w3.org/2000/svg" viewBox="0 0 85.04 85.04"><defs><style>.cls-1{fill:#307bbf;}.cls-2{fill:#b81178;}.cls-3{fill:#45a6b2;}.cls-4{fill:#29235c;}.cls-5{fill:#277c7f;}.cls-6{fill:#fff;}.cls-7{fill:#009fe3;}.cls-8{fill:#eb5b25;}</style></defs><polygon class="cls-6" points="33.06 9.61 35.02 8.46 34.99 6.18 33.01 5.07 31.05 6.22 31.08 8.5 33.06 9.61"/><polygon class="cls-5" points="31.17 21.48 31.17 21.48 29.55 20.58 31.17 21.48"/><polygon class="cls-5" points="15.19 26.73 15.19 26.84 15.15 23.13 13.06 24.37 13.07 25.54 15.19 26.73"/><path class="cls-4" d="M76.47,23.71L44.58,5.75l-6.19,3.65c3.9,2.38,7.13,5.74,8.99,10.14,0,.02.01.03.02.05.94,2.25,1.66,4.65,1.82,7.09.08,1.33.04,2.68-.13,4.01,0,.08-.02.16-.03.23-.23,1.42-.91,2.87-.88,4.29.03,1.51,1.26,2.63,2.16,3.75.68.84,1.35,1.69,2.02,2.54.03.04.06.07.09.11.69.87,1.38,1.75,2.06,2.62.48.61,1.19,1.27,1.38,2.04.49,1.95-2.26,3.31-3.65,4.01-.54.27-1.18.34-1.24,1.03-.04.43.44,1.28.56,1.71.23.84.46,1.79.14,2.64-.16.42-.5.64-.79.9h0c-.12.11-.23.23-.31.38-.49.86.13,1.18.33,1.84.31,1.04-.39,1.72-.72,2.64-.7,1.92.72,3.8.77,5.78h0c0,.28-.02.57-.07.86-.5,2.39-2.58,3.16-4.92,3.36h0c-2.15.19-4.51-.1-6.04-.05-1.76.06-3.75.04-4.66,1.73l-1.99-.95,12.06,6.8,31.51-18.64-.38-36.6Z"/><polygon class="cls-2" points="22.75 18.56 10.07 26.05 10.1 28.39 10.22 40.78 16.6 44.38 23.06 48.02 35.74 40.52 35.59 25.79 22.75 18.56"/><polygon class="cls-8" points="24.26 40.93 16.6 45.45 16.61 46.86 16.69 54.35 20.54 56.52 24.45 58.72 32.11 54.19 32.01 45.29 24.26 40.93"/><polygon class="cls-7" points="37.06 68.25 32.12 65.47 27.25 68.35 27.31 74.02 32.24 76.8 37.12 73.91 37.06 68.25"/><polygon class="cls-3" points="20.94 29.67 20.86 21.99 14.17 18.23 7.56 22.13 7.64 29.81 14.33 33.57 20.94 29.67"/><polygon class="cls-5" points="35.39 48.66 30.11 51.78 30.17 57.92 35.51 60.93 40.8 57.81 40.74 51.67 35.39 48.66"/><polygon class="cls-1" points="43.1 18.74 43.1 18.74 36.28 14.91 29.54 18.89 29.59 23.19 29.62 26.71 29.62 26.71 30.86 27.41 36.43 30.54 36.45 30.55 43.18 26.57 43.15 23.86 43.15 23.86 43.1 18.74"/><path class="cls-6" d="M59.02,59.55l11.52-3.37v-.07l-11.52-3.39v-3.1l15.36,4.93v3.33l-15.36,4.91v-3.24Z"/><path class="cls-6" d="M59.02,44.18h6.12v-5.62h-6.12v-3.24h15.36v3.24h-6.35v5.62h6.35v3.19h-15.36v-3.19Z"/><path class="cls-6" d="M59.02,26.55c0-3.39,1.64-5.45,4.78-5.45,3.53,0,5.31,2.45,5.31,5.91v1.58h5.26v3.19h-15.36v-5.24ZM64.06,24.38c-2.01,0-2.42,1.12-2.42,2.97v1.25h4.89v-1.29c0-1.76-.6-2.92-2.47-2.92Z"/></svg>