<?xml version="1.0" encoding="UTF-8"?><svg id="Laag_1" xmlns="http://www.w3.org/2000/svg" viewBox="0 0 272.76 177.08"><defs><style>.cls-1{fill:#2179be;}.cls-2{fill:#307bbf;}.cls-3{fill:#b81178;}.cls-4{fill:#45a6b2;}.cls-5{fill:#005a6c;}.cls-6{fill:#29235c;}.cls-7{fill:#277c7f;}.cls-8{fill:#64358c;}.cls-9{fill:#312783;}.cls-10{stroke:#e6007e;stroke-miterlimit:10;stroke-width:.75px;}.cls-10,.cls-11{fill:#e6007e;}.cls-12{fill:#93d5f6;}.cls-13{fill:#9a1c57;}.cls-14{fill:#eb5e27;}.cls-15{fill:#009fe3;}.cls-16{fill:#eb5b25;}</style></defs><path class="cls-6" d="M129.92,49.81l10.03,34.31h.2l10.1-34.31h9.24l-14.69,45.72h-9.9l-14.62-45.72h9.64Z"/><path class="cls-6" d="M175.7,49.81v18.22h16.75v-18.22h9.64v45.72h-9.64v-18.91h-16.75v18.91h-9.5v-45.72h9.5Z"/><path class="cls-6" d="M228.2,49.81c10.1,0,16.21,4.88,16.21,14.23,0,10.52-7.31,15.81-17.61,15.81h-4.72v15.68h-9.5v-45.72h15.62ZM234.65,64.8c0-5.98-3.32-7.22-8.84-7.22h-3.72v14.57h3.85c5.25,0,8.71-1.79,8.71-7.36Z"/><path class="cls-10" d="M133.15,110.86v7.65h3.26v1.42h-3.26v5.93h-1.69v-5.9h-9.62v-1.62l6.71-14.5,1.34.71-6.45,13.96h8.02v-2.97l.03-4.69h1.67Z"/><path class="cls-10" d="M141.13,122.9c.88.64,3,1.85,5.83,1.85,2.48,0,5.25-.78,5.25-4.79,0-3.1-2.61-4.01-5.38-4.92-3-.98-6.19-2.02-6.19-6.07,0-3.51,2.64-5.93,6.58-5.93,2.9,0,5.35,1.45,6.75,2.9l-.98,1.18c-1.69-1.58-3.59-2.56-5.8-2.56-2.09,0-4.82.91-4.82,4.22,0,3.03,2.41,3.88,5.48,4.86,3,.94,6.03,2.12,6.03,6.31s-2.51,6.34-7.01,6.34c-3.1,0-5.83-1.31-6.55-1.96l.81-1.42Z"/><path class="cls-10" d="M157.56,125.87l7.72-22.42h2.15l7.89,22.42h-1.73l-2.64-7.55h-9.16l-2.57,7.55h-1.66ZM162.32,116.8h8.12l-4.11-11.9-4.01,11.9Z"/><path class="cls-10" d="M192.43,103.44v1.45h-10.76v8.73h8.93v1.45h-8.93v10.79h-1.63v-22.42h12.39Z"/><path class="cls-10" d="M196.86,103.44h11.51v1.45h-9.88v8.8h8.47v1.45h-8.47v9.27h10.1v1.45h-11.73v-22.42Z"/><path class="cls-10" d="M226.36,103.44v1.45h-6.78v20.97h-1.63v-20.97h-6.68v-1.45h15.09Z"/><path class="cls-10" d="M244.06,103.44l-6.97,13.93v8.5h-1.63v-8.5l-7.14-13.93h1.89l6.1,12.07,5.9-12.07h1.86Z"/><path class="cls-16" d="M99.03,31.28c-1.84-4.37-5.07-7.7-8.97-10.03l.07,7.19,7.01,3.95,1.89-1.12Z"/><path class="cls-15" d="M97.23,40.44l3.44,1.94c.01-.08.02-.15.03-.23.16-1.29.21-2.61.13-3.91-.15-2.38-.86-4.72-1.77-6.91,0-.02-.01-.03-.02-.05l-1.89,1.12.08,8.04Z"/><path class="cls-7" d="M97.39,56.53l6.49-3.83c-.65-.83-1.31-1.65-1.97-2.48-.87-1.09-2.07-2.18-2.1-3.66-.03-1.38.63-2.8.86-4.18l-3.44-1.94-6.93,4.09.08,8.05,7.01,3.95Z"/><path class="cls-5" d="M97.48,64.58l4.99,2.81c.28-.26.61-.47.77-.88.32-.83.09-1.75-.13-2.57-.12-.42-.58-1.25-.55-1.67.06-.67.69-.74,1.21-1.01,1.35-.68,4.04-2,3.56-3.91-.19-.75-.88-1.39-1.35-1.99-.67-.85-1.34-1.71-2.01-2.56-.03-.04-.06-.07-.09-.11l-6.49,3.83.08,8.05Z"/><path class="cls-2" d="M97.66,81.89c2.28-.2,4.31-.95,4.8-3.28.06-.28.08-.56.07-.83l-4.89,2.89v1.22Z"/><path class="cls-15" d="M101.78,72.13c.33-.9,1.01-1.57.71-2.58-.19-.65-.8-.96-.32-1.8.08-.14.19-.26.31-.37l-4.99-2.81-6.56,3.88.05,4.97-.36.21.03,3.07,7.01,3.96,4.89-2.89c-.04-1.93-1.43-3.77-.75-5.64Z"/><polygon class="cls-2" points="83.51 61.65 83.87 61.44 88.62 64.11 92.22 61.98 92.16 56.67 87.54 54.07 82.98 56.77 82.99 57.86 83.47 58.13 83.51 61.65"/><polygon class="cls-3" points="90.91 68.46 90.88 65.39 88.62 64.11 83.87 61.44 83.51 61.65 83.52 62.35 83.56 66.18 76.99 70.06 77.02 73.58 84.04 77.53 90.6 73.65 90.96 73.43 90.91 68.46"/><polygon class="cls-9" points="83.52 62.35 83.51 61.65 83.47 58.13 82.99 57.86 76.46 54.19 69.53 58.28 69.58 62.69 74.36 65.39 74.39 69.02 76.62 70.28 76.99 70.06 83.56 66.18 83.52 62.35"/><polygon class="cls-11" points="69.58 62.69 68.64 62.16 62.99 65.5 63.06 72.06 68.78 75.29 74.43 71.95 74.39 69.02 74.36 65.39 69.58 62.69"/><polygon class="cls-16" points="64.68 79.99 64.64 76.33 61.45 74.53 58.3 76.4 58.34 80.06 61.52 81.85 64.68 79.99"/><polygon class="cls-13" points="63.19 98.43 63.15 94.64 59.85 92.78 56.59 94.71 56.62 98.5 59.93 100.36 63.19 98.43"/><polygon class="cls-8" points="61.95 49.44 57.3 46.82 52.71 49.53 52.76 54.87 57.41 57.5 62.01 54.78 61.95 49.44"/><polygon class="cls-16" points="64.78 125.62 69.48 128.26 74.11 125.53 74.05 120.14 69.37 117.49 64.73 120.23 64.78 125.62"/><polygon class="cls-13" points="59.21 139.75 61.59 141.09 63.93 139.7 63.91 136.97 61.53 135.63 59.18 137.02 59.21 139.75"/><polygon class="cls-11" points="95.26 138.44 90.25 135.61 85.3 138.54 85.36 144.29 90.37 147.12 95.32 144.18 95.26 138.44"/><polygon class="cls-16" points="83.84 149.85 83.81 146.2 80.62 144.4 77.47 146.26 77.51 149.92 80.69 151.72 83.84 149.85"/><polygon class="cls-8" points="87.84 127.28 83.15 124.64 78.52 127.38 78.57 132.77 83.26 135.41 87.9 132.67 87.84 127.28"/><polygon class="cls-4" points="93.66 39.06 93.6 33.12 88.43 30.2 83.31 33.22 83.32 33.22 83.38 39.17 88.55 42.08 93.66 39.06"/><polygon class="cls-9" points="69.14 43.77 65.13 46.13 64.02 45.51 64.08 51.4 69.98 54.72 75.81 51.28 75.76 47.04 69.13 43.31 69.14 43.77"/><polygon class="cls-15" points="69.14 43.77 69.13 43.31 67.66 42.48 67.66 42.47 67.62 38.29 65.03 36.83 61.03 39.2 61.08 43.85 64.02 45.51 65.13 46.13 69.14 43.77"/><polygon class="cls-2" points="83.31 33.22 83.31 33.22 75.4 28.77 67.57 33.39 67.62 38.39 67.66 42.47 67.66 42.48 69.1 43.29 75.57 46.93 75.59 46.94 83.41 42.32 83.38 39.17 83.37 39.16 83.31 33.22"/><polygon class="cls-1" points="83.2 32.54 83.2 32.54 83.27 38.63 83.27 38.63 83.21 32.54 83.2 32.54"/><polygon class="cls-4" points="33.91 144.25 34.08 138.45 29.13 135.41 24.02 138.18 23.87 143.98 28.82 147.01 33.91 144.25"/><polygon class="cls-7" points="32.34 120.9 28.09 118.51 23.91 120.99 23.96 125.87 28.2 128.26 32.39 125.78 32.34 120.9"/><polygon class="cls-9" points="45.52 133.05 41.15 135.63 39.2 134.52 39.26 140.47 45.69 144.09 52.04 140.34 51.98 135.19 45.51 131.55 45.52 133.05"/><polygon class="cls-15" points="45.51 131.55 45.5 131.54 45.48 129.38 45.46 127.98 41.05 125.49 36.69 128.07 36.74 133.14 39.2 134.52 41.15 135.63 45.52 133.05 45.51 131.55"/><polygon class="cls-15" points="97.94 108.24 97.93 108.23 97.91 106.32 97.9 105.07 93.99 102.87 90.12 105.16 90.17 109.65 92.35 110.88 94.08 111.85 97.95 109.57 97.94 108.24"/><polygon class="cls-3" points="62.02 108.35 57.65 105.88 57.29 106.1 57.33 110.63 50.76 114.51 50.8 118.02 51.69 118.52 53.43 117.49 59.56 120.94 64.74 117.88 64.71 114.96 62.08 113.47 62.02 108.35"/><polygon class="cls-4" points="72.62 113.36 72.56 107.28 67.25 104.29 62.01 107.39 62.02 108.35 62.08 113.47 64.71 114.96 67.38 116.46 72.62 113.36"/><polygon class="cls-7" points="99.54 123.28 99.46 116.36 93.43 112.96 87.47 116.48 87.55 123.41 93.58 126.81 99.54 123.28"/><polygon class="cls-4" points="85.67 105.67 85.58 97.7 78.64 93.8 71.79 97.85 71.8 99.11 71.87 105.81 75.32 107.75 78.81 109.72 85.67 105.67"/><polygon class="cls-9" points="57.29 106.1 57.25 102.58 50.23 98.63 43.31 102.72 43.38 109.67 44.63 108.93 49.64 111.76 49.67 114.31 50.4 114.72 50.76 114.51 57.33 110.63 57.29 106.1"/><polygon class="cls-11" points="44.63 108.93 43.38 109.67 39.68 111.86 39.74 117.61 44.75 120.44 49.7 117.51 49.67 114.31 49.64 111.76 44.63 108.93"/><polygon class="cls-2" points="61.54 122.06 59.56 120.94 53.43 117.49 51.69 118.52 45.4 122.23 45.46 127.98 45.47 127.98 45.49 129.38 45.51 131.55 51.98 135.19 53.62 136.11 61.63 131.37 61.54 122.06"/><polygon class="cls-1" points="45.49 129.38 45.47 127.98 45.46 127.98 45.48 129.38 45.49 129.38"/><polygon class="cls-1" points="45.5 131.54 45.51 131.55 45.49 129.38 45.48 129.38 45.5 131.54"/><polygon class="cls-9" points="52.73 23.43 54.43 22.42 54.41 20.44 52.69 19.47 50.98 20.48 51 22.46 52.73 23.43"/><polygon class="cls-12" points="45.62 48.39 49.23 46.26 49.19 42.06 45.53 40.01 41.92 42.14 41.96 46.34 45.62 48.39"/><polygon class="cls-9" points="50.97 34.07 50.96 33 47.9 31.28 44.87 33.07 44.9 36.58 47.97 38.31 49.65 37.31 49.63 34.86 50.97 34.07"/><polygon class="cls-2" points="58.39 34.77 53.98 32.29 50.97 34.07 49.63 34.86 49.65 37.31 49.68 39.92 54.08 42.4 58.44 39.83 58.39 34.77"/><polygon class="cls-9" points="91.37 159.1 87.92 157.16 84.52 159.17 84.56 163.13 88 165.08 91.42 163.06 91.37 159.1"/><polygon class="cls-9" points="37.09 108.55 34.59 107.14 32.12 108.6 32.15 111.47 34.65 112.89 37.12 111.42 37.09 108.55"/><polygon class="cls-12" points="63.48 17.64 61.45 16.5 59.45 17.68 59.48 20 61.5 21.14 63.5 19.96 63.48 17.64"/><polygon class="cls-12" points="76.26 19.88 71.79 17.37 67.38 19.98 67.43 25.11 71.9 27.63 76.32 25.02 76.26 19.88"/><polygon class="cls-4" points="53.34 60.22 50.64 58.7 47.98 60.27 48.02 63.37 50.71 64.89 53.38 63.32 53.34 60.22"/><polygon class="cls-12" points="19.38 131.57 16.68 130.06 14.02 131.63 14.05 134.73 16.74 136.25 19.41 134.67 19.38 131.57"/><polygon class="cls-12" points="94.82 126.07 93.58 126.81 92.47 126.18 91.08 127.03 91.15 130.07 93.81 131.53 96.41 129.95 96.35 126.91 94.82 126.07"/><polygon class="cls-9" points="84.05 96.43 84.05 96.43 84.05 96.43 84.05 96.43"/><polygon class="cls-2" points="90.95 114.23 90.9 109.36 90.87 106.85 90.15 106.44 90.14 106.45 90.14 106.44 88 105.23 83.53 102.72 83.51 102.72 76.28 107 76.29 108.3 76.37 115.42 83.7 119.56 87.4 117.37 90.96 115.27 90.95 114.23"/><polygon class="cls-1" points="90.14 106.44 90.14 106.45 90.15 106.44 90.14 106.44"/><path class="cls-11" d="M87.22,83.53c.88-1.65,2.83-1.63,4.54-1.69,1.5-.05,3.8.23,5.89.05v-1.22s-7.02-3.96-7.02-3.96l-5.96,3.53,2.53,1.42.02,1.86Z"/><path class="cls-14" d="M85.24,86.13c-.02-.2-.01-.1,0,0h0Z"/><path class="cls-14" d="M85.24,86.13h0c0,.1.02.19,0,0Z"/><path class="cls-16" d="M81.34,92.49l5.94-3.51-.06-5.45-.02-1.86-2.53-1.42-3.85-2.17-6.29,3.73.06,6.15,6.74,3.8v.74ZM85.24,86.13c.02.19,0,.1,0,0,0-.1-.02-.2,0,0Z"/><polygon class="cls-3" points="81.37 95.81 81.34 92.49 81.33 91.75 74.59 87.95 74.29 87.78 72.46 88.86 72.5 92.8 68.22 95.33 67.35 94.83 67.4 99.98 71.83 102.48 74.45 103.96 81.41 99.83 81.37 95.81"/><polygon class="cls-11" points="72.5 92.8 72.46 88.86 72.45 87.83 68.12 85.39 63.84 87.92 63.89 92.89 67.35 94.83 68.22 95.33 72.5 92.8"/><polygon class="cls-3" points="49.81 90.38 54.66 93.1 59.43 90.28 59.38 84.72 54.54 81.99 49.75 84.82 49.81 90.38"/><polygon class="cls-3" points="76.4 29.33 83.32 33.22 90.14 29.19 90.06 21.25 83.15 17.35 76.32 21.39 76.4 29.33"/><polygon class="cls-2" points="77.65 136.94 73.32 134.51 69.05 137.03 69.1 142 73.42 144.44 77.7 141.91 77.65 136.94"/><polygon class="cls-9" points="91.08 102.65 91.03 98.28 87.23 96.13 83.47 98.36 83.51 102.72 87.32 104.87 91.08 102.65"/></svg>