<?xml version="1.0" encoding="UTF-8"?><svg id="Laag_1" xmlns="http://www.w3.org/2000/svg" viewBox="0 0 272.76 177.08"><defs><style>.cls-1{fill:#2179be;}.cls-2{fill:#307bbf;}.cls-3{fill:#b81178;}.cls-4{fill:#45a6b2;}.cls-5{fill:#005a6c;}.cls-6{fill:#29235c;}.cls-7{fill:#277c7f;}.cls-8{fill:#64358c;}.cls-9{fill:#312783;}.cls-10{stroke:#e6007e;stroke-miterlimit:10;stroke-width:.75px;}.cls-10,.cls-11{fill:#e6007e;}.cls-12{fill:#93d5f6;}.cls-13{fill:#9a1c57;}.cls-14{fill:#eb5e27;}.cls-15{fill:#009fe3;}.cls-16{fill:#eb5b25;}</style></defs><path class="cls-6" d="M129.92,36.81l10.03,34.31h.2l10.1-34.31h9.24l-14.69,45.72h-9.9l-14.62-45.72h9.64Z"/><path class="cls-6" d="M175.7,36.81v18.22h16.75v-18.22h9.64v45.72h-9.64v-18.91h-16.75v18.91h-9.5v-45.72h9.5Z"/><path class="cls-6" d="M228.2,36.81c10.1,0,16.21,4.88,16.21,14.23,0,10.52-7.31,15.81-17.61,15.81h-4.72v15.68h-9.5v-45.72h15.62ZM234.65,51.8c0-5.98-3.32-7.22-8.84-7.22h-3.72v14.57h3.85c5.25,0,8.71-1.79,8.71-7.36Z"/><path class="cls-10" d="M133.15,97.86v7.65h3.26v1.42h-3.26v5.93h-1.69v-5.9h-9.62v-1.62l6.71-14.5,1.34.71-6.45,13.96h8.02v-2.97l.03-4.69h1.67Z"/><path class="cls-10" d="M141.13,109.9c.88.64,3,1.85,5.83,1.85,2.48,0,5.25-.78,5.25-4.79,0-3.1-2.61-4.01-5.38-4.92-3-.98-6.19-2.02-6.19-6.07,0-3.51,2.64-5.93,6.58-5.93,2.9,0,5.35,1.45,6.75,2.9l-.98,1.18c-1.69-1.58-3.59-2.56-5.8-2.56-2.09,0-4.82.91-4.82,4.22,0,3.03,2.41,3.88,5.48,4.86,3,.94,6.03,2.12,6.03,6.31s-2.51,6.34-7.01,6.34c-3.1,0-5.83-1.31-6.55-1.96l.81-1.42Z"/><path class="cls-10" d="M157.56,112.87l7.72-22.42h2.15l7.89,22.42h-1.73l-2.64-7.55h-9.16l-2.57,7.55h-1.66ZM162.32,103.8h8.12l-4.11-11.9-4.01,11.9Z"/><path class="cls-10" d="M192.43,90.44v1.45h-10.76v8.73h8.93v1.45h-8.93v10.79h-1.63v-22.42h12.39Z"/><path class="cls-10" d="M196.86,90.44h11.51v1.45h-9.88v8.8h8.47v1.45h-8.47v9.27h10.1v1.45h-11.73v-22.42Z"/><path class="cls-10" d="M226.36,90.44v1.45h-6.78v20.97h-1.63v-20.97h-6.68v-1.45h15.09Z"/><path class="cls-10" d="M244.06,90.44l-6.97,13.93v8.5h-1.63v-8.5l-7.14-13.93h1.89l6.1,12.07,5.9-12.07h1.86Z"/><path class="cls-6" d="M128.55,124.02c.21.73.41,1.56.41,2.55,0,2.13-.87,3.72-2.74,3.72-1.23,0-1.87-.6-1.87-2.12v-4.15h.62v3.77c0,1,.05,1.98,1.33,1.98,1.53,0,2.05-1.59,2.05-3.04,0-1.19-.24-2-.42-2.72h.63Z"/><path class="cls-6" d="M131.07,121.75c.27,0,.5.22.5.52,0,.32-.24.53-.51.53s-.5-.21-.5-.53c0-.3.22-.52.51-.52ZM130.76,130.12v-6.1h.62v6.1h-.62Z"/><path class="cls-6" d="M134.07,130.12h-.62v-5.38l-.05-.72h.57l.1.94c.2-.58.81-1.12,1.57-1.12.41,0,.77.11.97.24l-.22.52c-.24-.12-.55-.22-.86-.22-.87,0-1.41.83-1.46,1.75v3.99Z"/><path class="cls-6" d="M138.28,121.5v2.52h1.84v.5h-1.84v4.13c0,.89.35,1.14.97,1.14.47,0,.81-.2,1.02-.33l.24.43c-.35.26-.86.41-1.29.41-1.35,0-1.55-.72-1.55-1.7v-7.09h.62Z"/><path class="cls-6" d="M146.21,124.02v5.28l.06.82h-.57l-.11-.92c-.48.77-1.28,1.09-2.06,1.09-1.29,0-1.96-.68-1.96-2.07v-4.2h.62v3.93c0,1.03.24,1.84,1.5,1.84.99,0,1.9-.88,1.9-1.69v-4.08h.62Z"/><path class="cls-6" d="M152.91,129.12l.09.99h-.6l-.07-.78h-.02c-.35.48-.94.95-1.93.95-1.81,0-2.42-1.31-2.42-2.96,0-2.2,1.02-3.48,3.03-3.48.37,0,1.2.1,1.93.36v4.92ZM152.29,124.64c-.25-.12-.83-.26-1.45-.26-1.7,0-2.27,1.3-2.27,3.04,0,1.12.36,2.37,1.85,2.37,1.23,0,1.87-.82,1.87-1.61v-3.53Z"/><path class="cls-6" d="M155.59,121.51v6.86c0,1.08.19,1.41.87,1.41.31,0,.62-.1.84-.21l.16.46c-.21.14-.62.26-1.12.26-1.31,0-1.38-.87-1.38-1.86v-6.92h.62Z"/><path class="cls-6" d="M161.41,130.12v-8.62h.62v3.41c.52-.76,1.33-1.07,2.06-1.07,1.29,0,1.96.72,1.96,2.11v4.17h-.62v-3.92c0-.97-.21-1.85-1.49-1.85-1.04,0-1.91.91-1.91,1.74v4.03h-.62Z"/><path class="cls-6" d="M172.73,124.02v5.28l.06.82h-.57l-.11-.92c-.48.77-1.28,1.09-2.06,1.09-1.29,0-1.96-.68-1.96-2.07v-4.2h.62v3.93c0,1.03.24,1.84,1.5,1.84.99,0,1.9-.88,1.9-1.69v-4.08h.62Z"/><path class="cls-6" d="M174.82,130.12v-5.28l-.07-.82h.53l.11.94c.45-.73,1.22-1.12,1.95-1.12.86,0,1.48.36,1.82,1.25.4-.84,1.2-1.25,1.98-1.25,1.3,0,2,.79,2,2.18v4.09h-.62v-3.87c0-.98-.22-1.9-1.49-1.9-.97,0-1.74.83-1.74,1.65v4.12h-.62v-3.86c0-.87-.14-1.91-1.49-1.91-1,0-1.75.88-1.75,1.74v4.03h-.62Z"/><path class="cls-6" d="M189.82,129.12l.09.99h-.6l-.07-.78h-.02c-.35.48-.94.95-1.93.95-1.81,0-2.42-1.31-2.42-2.96,0-2.2,1.02-3.48,3.03-3.48.37,0,1.2.1,1.93.36v4.92ZM189.2,124.64c-.25-.12-.83-.26-1.45-.26-1.7,0-2.27,1.3-2.27,3.04,0,1.12.36,2.37,1.85,2.37,1.23,0,1.87-.82,1.87-1.61v-3.53Z"/><path class="cls-6" d="M191.88,130.12v-5.28l-.05-.82h.56l.11.95c.5-.74,1.25-1.13,2.06-1.13,1.29,0,1.96.73,1.96,2.12v4.15h-.62v-3.88c0-1.03-.24-1.88-1.45-1.88-1.09,0-1.95.91-1.95,1.71v4.05h-.62Z"/><path class="cls-6" d="M201.98,132.72h-.62v-8.54c.82-.21,1.46-.33,2.08-.33,1.95,0,2.75,1.08,2.75,3.15s-.92,3.3-2.42,3.3c-.71,0-1.35-.25-1.8-.57v3ZM203.47,124.38c-.5,0-1.08.09-1.49.24v4.44c.4.4,1.18.72,1.8.72.95,0,1.8-.66,1.8-2.64,0-1.41-.29-2.75-2.11-2.75Z"/><path class="cls-6" d="M208.59,121.51v6.86c0,1.08.19,1.41.87,1.41.31,0,.62-.1.84-.21l.16.46c-.21.14-.62.26-1.12.26-1.31,0-1.38-.87-1.38-1.86v-6.92h.62Z"/><path class="cls-6" d="M216.04,129.12l.09.99h-.6l-.07-.78h-.03c-.35.48-.94.95-1.93.95-1.81,0-2.42-1.31-2.42-2.96,0-2.2,1.02-3.48,3.03-3.48.37,0,1.2.1,1.93.36v4.92ZM215.42,124.64c-.25-.12-.83-.26-1.45-.26-1.7,0-2.27,1.3-2.27,3.04,0,1.12.36,2.37,1.85,2.37,1.23,0,1.87-.82,1.87-1.61v-3.53Z"/><path class="cls-6" d="M218.72,121.5v2.52h1.84v.5h-1.84v4.13c0,.89.35,1.14.97,1.14.47,0,.81-.2,1.02-.33l.24.43c-.35.26-.86.41-1.29.41-1.35,0-1.55-.72-1.55-1.7v-7.09h.62Z"/><path class="cls-6" d="M222.77,132.72h-.62v-9.38c0-.78.2-1.97,1.89-1.97.46,0,1.1.16,1.38.31l-.21.5c-.3-.14-.77-.27-1.24-.27-.93,0-1.19.57-1.19,1.48v.63h2.02v.5h-2.02v8.21Z"/><path class="cls-6" d="M227.9,123.84c.82,0,2.43.26,2.43,3.03,0,2.46-1.14,3.42-2.65,3.42s-2.44-1.07-2.44-3.3c0-2.55,1.48-3.15,2.67-3.15ZM229.71,127.09c0-1.55-.5-2.72-1.89-2.72s-1.97,1.09-1.97,2.53c0,1.28.28,2.88,1.91,2.88,1.35,0,1.95-1.29,1.95-2.69Z"/><path class="cls-6" d="M232.7,130.12h-.62v-5.38l-.05-.72h.57l.1.94c.2-.58.81-1.12,1.57-1.12.41,0,.77.11.97.24l-.22.52c-.24-.12-.55-.22-.86-.22-.87,0-1.41.83-1.46,1.75v3.99Z"/><path class="cls-6" d="M236.31,130.12v-5.28l-.07-.82h.53l.11.94c.45-.73,1.22-1.12,1.95-1.12.86,0,1.48.36,1.82,1.25.4-.84,1.2-1.25,1.98-1.25,1.3,0,2,.79,2,2.18v4.09h-.62v-3.87c0-.98-.22-1.9-1.49-1.9-.97,0-1.74.83-1.74,1.65v4.12h-.62v-3.86c0-.87-.14-1.91-1.49-1.91-1,0-1.75.88-1.75,1.74v4.03h-.62Z"/><path class="cls-6" d="M124.77,147.48h-.62v-9.38c0-.78.2-1.97,1.89-1.97.46,0,1.1.16,1.38.31l-.21.5c-.3-.14-.77-.27-1.24-.27-.93,0-1.19.57-1.19,1.48v.63h2.02v.5h-2.02v8.21Z"/><path class="cls-6" d="M129.9,138.6c.82,0,2.43.26,2.43,3.03,0,2.46-1.14,3.42-2.65,3.42s-2.44-1.07-2.44-3.3c0-2.55,1.48-3.15,2.67-3.15ZM131.71,141.85c0-1.55-.5-2.72-1.89-2.72s-1.97,1.09-1.97,2.53c0,1.28.28,2.88,1.91,2.88,1.35,0,1.95-1.29,1.95-2.69Z"/><path class="cls-6" d="M134.7,144.87h-.62v-5.38l-.05-.72h.57l.1.94c.2-.58.81-1.12,1.57-1.12.41,0,.77.11.97.24l-.22.52c-.24-.12-.55-.22-.86-.22-.87,0-1.41.83-1.46,1.75v3.99Z"/><path class="cls-6" d="M140.8,144.01c.34.22.92.53,1.69.53s1.43-.4,1.43-1.24-.63-1.08-1.43-1.29c-.89-.24-1.85-.5-1.85-1.7s.94-1.71,1.95-1.71c.84,0,1.54.38,1.92.81l-.38.41c-.37-.38-.92-.71-1.61-.71-.6,0-1.3.3-1.3,1.15,0,.78.66,1,1.45,1.24.88.26,1.85.51,1.85,1.74s-.86,1.81-2.05,1.81c-.95,0-1.71-.36-1.93-.57l.27-.47Z"/><path class="cls-6" d="M150.68,143.88l.09.99h-.6l-.07-.78h-.03c-.35.48-.94.95-1.93.95-1.81,0-2.42-1.31-2.42-2.96,0-2.2,1.02-3.48,3.03-3.48.37,0,1.2.1,1.93.36v4.92ZM150.06,139.39c-.25-.12-.83-.26-1.45-.26-1.7,0-2.27,1.3-2.27,3.04,0,1.12.36,2.37,1.85,2.37,1.23,0,1.87-.82,1.87-1.61v-3.53Z"/><path class="cls-6" d="M153.35,147.48h-.62v-9.38c0-.78.2-1.97,1.88-1.97.46,0,1.1.16,1.38.31l-.21.5c-.3-.14-.77-.27-1.24-.27-.93,0-1.19.57-1.19,1.48v.63h2.02v.5h-2.02v8.21Z"/><path class="cls-6" d="M160.3,140.01c0,2.1-2.85,2.17-3.87,2.08.04,1.17.56,2.42,2.05,2.42.91,0,1.43-.45,1.6-.58l.31.43c-.38.32-1.03.68-1.9.68-1.86,0-2.67-1.31-2.67-3.16s1.02-3.29,2.78-3.29c1.12,0,1.7.61,1.7,1.41ZM158.57,139.1c-1.54,0-2.1,1.48-2.13,2.49.67.06,3.22.01,3.22-1.44,0-.67-.45-1.05-1.09-1.05Z"/><path class="cls-6" d="M162.41,136.26v2.52h1.84v.5h-1.84v4.13c0,.89.35,1.14.97,1.14.47,0,.81-.2,1.02-.33l.24.43c-.35.26-.86.41-1.29.41-1.35,0-1.55-.72-1.55-1.7v-7.09h.62Z"/><path class="cls-6" d="M170.32,144.97c0,.61-.07,1.25-.24,1.71-.33.93-1.05,1.49-2.21,1.49-1.22,0-1.79-.6-1.79-1.51,0-1.05.86-1.79,1.41-2.13-.97-.07-1.8-.52-1.8-2.05v-3.71h.62v3.46c0,1.02.1,1.84,1.64,1.84.94,0,1.76-.68,1.76-1.65v-3.65h.6v6.2ZM167.93,147.66c1.3,0,1.77-1.1,1.77-2.63v-1.1c-1.75.69-2.99,1.4-2.99,2.67,0,.71.45,1.07,1.22,1.07Z"/><path class="cls-6" d="M179.82,143.88l.09.99h-.6l-.07-.78h-.03c-.35.48-.94.95-1.93.95-1.81,0-2.42-1.31-2.42-2.96,0-2.2,1.02-3.48,3.03-3.48.37,0,1.2.1,1.93.36v4.92ZM179.2,139.39c-.25-.12-.83-.26-1.45-.26-1.7,0-2.27,1.3-2.27,3.04,0,1.12.36,2.37,1.85,2.37,1.23,0,1.87-.82,1.87-1.61v-3.53Z"/><path class="cls-6" d="M181.59,144.01c.34.22.92.53,1.69.53s1.43-.4,1.43-1.24-.63-1.08-1.43-1.29c-.89-.24-1.85-.5-1.85-1.7s.94-1.71,1.95-1.71c.84,0,1.54.38,1.92.81l-.38.41c-.37-.38-.92-.71-1.61-.71-.6,0-1.3.3-1.3,1.15,0,.78.66,1,1.45,1.24.88.26,1.85.51,1.85,1.74s-.86,1.81-2.05,1.81c-.95,0-1.71-.36-1.94-.57l.27-.47Z"/><path class="cls-6" d="M186.56,144.01c.33.22.92.53,1.69.53s1.43-.4,1.43-1.24-.63-1.08-1.43-1.29c-.89-.24-1.85-.5-1.85-1.7s.94-1.71,1.95-1.71c.84,0,1.54.38,1.92.81l-.38.41c-.37-.38-.92-.71-1.61-.71-.59,0-1.3.3-1.3,1.15,0,.78.66,1,1.45,1.24.88.26,1.85.51,1.85,1.74s-.86,1.81-2.05,1.81c-.95,0-1.71-.36-1.93-.57l.27-.47Z"/><path class="cls-6" d="M195.91,140.01c0,2.1-2.85,2.17-3.87,2.08.04,1.17.56,2.42,2.05,2.42.91,0,1.43-.45,1.6-.58l.31.43c-.38.32-1.03.68-1.9.68-1.86,0-2.67-1.31-2.67-3.16s1.02-3.29,2.78-3.29c1.12,0,1.7.61,1.7,1.41ZM194.19,139.1c-1.54,0-2.1,1.48-2.13,2.49.67.06,3.22.01,3.22-1.44,0-.67-.45-1.05-1.09-1.05Z"/><path class="cls-6" d="M197.12,144.01c.34.22.92.53,1.69.53s1.43-.4,1.43-1.24-.63-1.08-1.43-1.29c-.89-.24-1.85-.5-1.85-1.7s.94-1.71,1.95-1.71c.84,0,1.54.38,1.92.81l-.38.41c-.37-.38-.92-.71-1.61-.71-.6,0-1.3.3-1.3,1.15,0,.78.66,1,1.45,1.24.88.26,1.85.51,1.85,1.74s-.86,1.81-2.05,1.81c-.95,0-1.71-.36-1.93-.57l.27-.47Z"/><path class="cls-6" d="M202.09,144.01c.33.22.92.53,1.69.53s1.43-.4,1.43-1.24-.63-1.08-1.43-1.29c-.89-.24-1.85-.5-1.85-1.7s.94-1.71,1.95-1.71c.84,0,1.54.38,1.92.81l-.38.41c-.37-.38-.92-.71-1.61-.71-.59,0-1.3.3-1.3,1.15,0,.78.66,1,1.45,1.24.88.26,1.85.51,1.85,1.74s-.86,1.81-2.05,1.81c-.95,0-1.71-.36-1.93-.57l.27-.47Z"/><path class="cls-6" d="M207.38,144.87v-5.28l-.07-.82h.53l.11.94c.45-.73,1.22-1.12,1.95-1.12.86,0,1.48.36,1.82,1.25.4-.84,1.2-1.25,1.98-1.25,1.3,0,2,.79,2,2.18v4.09h-.62v-3.87c0-.98-.22-1.9-1.49-1.9-.97,0-1.74.83-1.74,1.65v4.12h-.62v-3.86c0-.87-.14-1.91-1.49-1.91-1,0-1.75.88-1.75,1.74v4.03h-.62Z"/><path class="cls-6" d="M221.91,140.01c0,2.1-2.85,2.17-3.87,2.08.04,1.17.56,2.42,2.05,2.42.91,0,1.43-.45,1.6-.58l.31.43c-.38.32-1.03.68-1.9.68-1.86,0-2.67-1.31-2.67-3.16s1.02-3.29,2.78-3.29c1.12,0,1.7.61,1.7,1.41ZM220.18,139.1c-1.54,0-2.1,1.48-2.13,2.49.67.06,3.22.01,3.22-1.44,0-.67-.45-1.05-1.09-1.05Z"/><path class="cls-6" d="M223.4,144.87v-5.28l-.05-.82h.56l.11.95c.5-.74,1.25-1.13,2.06-1.13,1.29,0,1.96.73,1.96,2.12v4.15h-.62v-3.88c0-1.03-.24-1.88-1.45-1.88-1.09,0-1.95.91-1.95,1.71v4.05h-.62Z"/><path class="cls-6" d="M230.72,136.26v2.52h1.84v.5h-1.84v4.13c0,.89.35,1.14.97,1.14.47,0,.81-.2,1.02-.33l.24.43c-.35.26-.86.41-1.29.41-1.35,0-1.55-.72-1.55-1.7v-7.09h.62Z"/><path class="cls-16" d="M99.03,31.28c-1.84-4.37-5.07-7.7-8.97-10.03l.07,7.19,7.01,3.95,1.89-1.12Z"/><path class="cls-15" d="M97.23,40.44l3.44,1.94c.01-.08.02-.15.03-.23.16-1.29.21-2.61.13-3.91-.15-2.38-.86-4.72-1.77-6.91,0-.02-.01-.03-.02-.05l-1.89,1.12.08,8.04Z"/><path class="cls-7" d="M97.39,56.53l6.49-3.83c-.65-.83-1.31-1.65-1.97-2.48-.87-1.09-2.07-2.18-2.1-3.66-.03-1.38.63-2.8.86-4.18l-3.44-1.94-6.93,4.09.08,8.05,7.01,3.95Z"/><path class="cls-5" d="M97.48,64.58l4.99,2.81c.28-.26.61-.47.77-.88.32-.83.09-1.75-.13-2.57-.12-.42-.58-1.25-.55-1.67.06-.67.69-.74,1.21-1.01,1.35-.68,4.04-2,3.56-3.91-.19-.75-.88-1.39-1.35-1.99-.67-.85-1.34-1.71-2.01-2.56-.03-.04-.06-.07-.09-.11l-6.49,3.83.08,8.05Z"/><path class="cls-2" d="M97.66,81.89c2.28-.2,4.31-.95,4.8-3.28.06-.28.08-.56.07-.83l-4.89,2.89v1.22Z"/><path class="cls-15" d="M101.78,72.13c.33-.9,1.01-1.57.71-2.58-.19-.65-.8-.96-.32-1.8.08-.14.19-.26.31-.37l-4.99-2.81-6.56,3.88.05,4.97-.36.21.03,3.07,7.01,3.96,4.89-2.89c-.04-1.93-1.43-3.77-.75-5.64Z"/><polygon class="cls-2" points="83.51 61.65 83.87 61.44 88.62 64.11 92.22 61.98 92.16 56.67 87.54 54.07 82.98 56.77 82.99 57.86 83.47 58.13 83.51 61.65"/><polygon class="cls-3" points="90.91 68.46 90.88 65.39 88.62 64.11 83.87 61.44 83.51 61.65 83.52 62.35 83.56 66.18 76.99 70.06 77.02 73.58 84.04 77.53 90.6 73.65 90.96 73.43 90.91 68.46"/><polygon class="cls-9" points="83.52 62.35 83.51 61.65 83.47 58.13 82.99 57.86 76.46 54.19 69.53 58.28 69.58 62.69 74.36 65.39 74.39 69.02 76.62 70.28 76.99 70.06 83.56 66.18 83.52 62.35"/><polygon class="cls-11" points="69.58 62.69 68.64 62.16 62.99 65.5 63.06 72.06 68.78 75.29 74.43 71.95 74.39 69.02 74.36 65.39 69.58 62.69"/><polygon class="cls-16" points="64.68 79.99 64.64 76.33 61.45 74.53 58.3 76.4 58.34 80.06 61.52 81.85 64.68 79.99"/><polygon class="cls-13" points="63.19 98.43 63.15 94.64 59.85 92.78 56.59 94.71 56.62 98.5 59.93 100.36 63.19 98.43"/><polygon class="cls-8" points="61.95 49.44 57.3 46.82 52.71 49.53 52.76 54.87 57.41 57.5 62.01 54.78 61.95 49.44"/><polygon class="cls-16" points="64.78 125.62 69.48 128.26 74.11 125.53 74.05 120.14 69.37 117.49 64.73 120.23 64.78 125.62"/><polygon class="cls-13" points="59.21 139.75 61.59 141.09 63.93 139.7 63.91 136.97 61.53 135.63 59.18 137.02 59.21 139.75"/><polygon class="cls-11" points="95.26 138.44 90.25 135.61 85.3 138.54 85.36 144.29 90.37 147.12 95.32 144.18 95.26 138.44"/><polygon class="cls-16" points="83.84 149.85 83.81 146.2 80.62 144.4 77.47 146.26 77.51 149.92 80.69 151.72 83.84 149.85"/><polygon class="cls-8" points="87.84 127.28 83.15 124.64 78.52 127.38 78.57 132.77 83.26 135.41 87.9 132.67 87.84 127.28"/><polygon class="cls-4" points="93.66 39.06 93.6 33.12 88.43 30.2 83.31 33.22 83.32 33.22 83.38 39.17 88.55 42.08 93.66 39.06"/><polygon class="cls-9" points="69.14 43.77 65.13 46.13 64.02 45.51 64.08 51.4 69.98 54.72 75.81 51.28 75.76 47.04 69.13 43.31 69.14 43.77"/><polygon class="cls-15" points="69.14 43.77 69.13 43.31 67.66 42.48 67.66 42.47 67.62 38.29 65.03 36.83 61.03 39.2 61.08 43.85 64.02 45.51 65.13 46.13 69.14 43.77"/><polygon class="cls-2" points="83.31 33.22 83.31 33.22 75.4 28.77 67.57 33.39 67.62 38.39 67.66 42.47 67.66 42.48 69.1 43.29 75.57 46.93 75.59 46.94 83.41 42.32 83.38 39.17 83.37 39.16 83.31 33.22"/><polygon class="cls-1" points="83.2 32.54 83.2 32.54 83.27 38.63 83.27 38.63 83.21 32.54 83.2 32.54"/><polygon class="cls-4" points="33.91 144.25 34.08 138.45 29.13 135.41 24.02 138.18 23.87 143.98 28.82 147.01 33.91 144.25"/><polygon class="cls-7" points="32.34 120.9 28.09 118.51 23.91 120.99 23.96 125.87 28.2 128.26 32.39 125.78 32.34 120.9"/><polygon class="cls-9" points="45.52 133.05 41.15 135.63 39.2 134.52 39.26 140.47 45.69 144.09 52.04 140.34 51.98 135.19 45.51 131.55 45.52 133.05"/><polygon class="cls-15" points="45.51 131.55 45.5 131.54 45.48 129.38 45.46 127.98 41.05 125.49 36.69 128.07 36.74 133.14 39.2 134.52 41.15 135.63 45.52 133.05 45.51 131.55"/><polygon class="cls-15" points="97.94 108.24 97.93 108.23 97.91 106.32 97.9 105.07 93.99 102.87 90.12 105.16 90.17 109.65 92.35 110.88 94.08 111.85 97.95 109.57 97.94 108.24"/><polygon class="cls-3" points="62.02 108.35 57.65 105.88 57.29 106.1 57.33 110.63 50.76 114.51 50.8 118.02 51.69 118.52 53.43 117.49 59.56 120.94 64.74 117.88 64.71 114.96 62.08 113.47 62.02 108.35"/><polygon class="cls-4" points="72.62 113.36 72.56 107.28 67.25 104.29 62.01 107.39 62.02 108.35 62.08 113.47 64.71 114.96 67.38 116.46 72.62 113.36"/><polygon class="cls-7" points="99.54 123.28 99.46 116.36 93.43 112.96 87.47 116.48 87.55 123.41 93.58 126.81 99.54 123.28"/><polygon class="cls-4" points="85.67 105.67 85.58 97.7 78.64 93.8 71.79 97.85 71.8 99.11 71.87 105.81 75.32 107.75 78.81 109.72 85.67 105.67"/><polygon class="cls-9" points="57.29 106.1 57.25 102.58 50.23 98.63 43.31 102.72 43.38 109.67 44.63 108.93 49.64 111.76 49.67 114.31 50.4 114.72 50.76 114.51 57.33 110.63 57.29 106.1"/><polygon class="cls-11" points="44.63 108.93 43.38 109.67 39.68 111.86 39.74 117.61 44.75 120.44 49.7 117.51 49.67 114.31 49.64 111.76 44.63 108.93"/><polygon class="cls-2" points="61.54 122.06 59.56 120.94 53.43 117.49 51.69 118.52 45.4 122.23 45.46 127.98 45.47 127.98 45.49 129.38 45.51 131.55 51.98 135.19 53.62 136.11 61.63 131.37 61.54 122.06"/><polygon class="cls-1" points="45.49 129.38 45.47 127.98 45.46 127.98 45.48 129.38 45.49 129.38"/><polygon class="cls-1" points="45.5 131.54 45.51 131.55 45.49 129.38 45.48 129.38 45.5 131.54"/><polygon class="cls-9" points="52.73 23.43 54.43 22.42 54.41 20.44 52.69 19.47 50.98 20.48 51 22.46 52.73 23.43"/><polygon class="cls-12" points="45.62 48.39 49.23 46.26 49.19 42.06 45.53 40.01 41.92 42.14 41.96 46.34 45.62 48.39"/><polygon class="cls-9" points="50.97 34.07 50.96 33 47.9 31.28 44.87 33.07 44.9 36.58 47.97 38.31 49.65 37.31 49.63 34.86 50.97 34.07"/><polygon class="cls-2" points="58.39 34.77 53.98 32.29 50.97 34.07 49.63 34.86 49.65 37.31 49.68 39.92 54.08 42.4 58.44 39.83 58.39 34.77"/><polygon class="cls-9" points="91.37 159.1 87.92 157.16 84.52 159.17 84.56 163.13 88 165.08 91.42 163.06 91.37 159.1"/><polygon class="cls-9" points="37.09 108.55 34.59 107.14 32.12 108.6 32.15 111.47 34.65 112.89 37.12 111.42 37.09 108.55"/><polygon class="cls-12" points="63.48 17.64 61.45 16.5 59.45 17.68 59.48 20 61.5 21.14 63.5 19.96 63.48 17.64"/><polygon class="cls-12" points="76.26 19.88 71.79 17.37 67.38 19.98 67.43 25.11 71.9 27.63 76.32 25.02 76.26 19.88"/><polygon class="cls-4" points="53.34 60.22 50.64 58.7 47.98 60.27 48.02 63.37 50.71 64.89 53.38 63.32 53.34 60.22"/><polygon class="cls-12" points="19.38 131.57 16.68 130.06 14.02 131.63 14.05 134.73 16.74 136.25 19.41 134.67 19.38 131.57"/><polygon class="cls-12" points="94.82 126.07 93.58 126.81 92.47 126.18 91.08 127.03 91.15 130.07 93.81 131.53 96.41 129.95 96.35 126.91 94.82 126.07"/><polygon class="cls-9" points="84.05 96.43 84.05 96.43 84.05 96.43 84.05 96.43"/><polygon class="cls-2" points="90.95 114.23 90.9 109.36 90.87 106.85 90.15 106.44 90.14 106.45 90.14 106.44 88 105.23 83.53 102.72 83.51 102.72 76.28 107 76.29 108.3 76.37 115.42 83.7 119.56 87.4 117.37 90.96 115.27 90.95 114.23"/><polygon class="cls-1" points="90.14 106.44 90.14 106.45 90.15 106.44 90.14 106.44"/><path class="cls-11" d="M87.22,83.53c.88-1.65,2.83-1.63,4.54-1.69,1.5-.05,3.8.23,5.89.05v-1.22s-7.02-3.96-7.02-3.96l-5.96,3.53,2.53,1.42.02,1.86Z"/><path class="cls-14" d="M85.24,86.13c-.02-.2-.01-.1,0,0h0Z"/><path class="cls-14" d="M85.24,86.13h0c0,.1.02.19,0,0Z"/><path class="cls-16" d="M81.34,92.49l5.94-3.51-.06-5.45-.02-1.86-2.53-1.42-3.85-2.17-6.29,3.73.06,6.15,6.74,3.8v.74ZM85.24,86.13c.02.19,0,.1,0,0,0-.1-.02-.2,0,0Z"/><polygon class="cls-3" points="81.37 95.81 81.34 92.49 81.33 91.75 74.59 87.95 74.29 87.78 72.46 88.86 72.5 92.8 68.22 95.33 67.35 94.83 67.4 99.98 71.83 102.48 74.45 103.96 81.41 99.83 81.37 95.81"/><polygon class="cls-11" points="72.5 92.8 72.46 88.86 72.45 87.83 68.12 85.39 63.84 87.92 63.89 92.89 67.35 94.83 68.22 95.33 72.5 92.8"/><polygon class="cls-3" points="49.81 90.38 54.66 93.1 59.43 90.28 59.38 84.72 54.54 81.99 49.75 84.82 49.81 90.38"/><polygon class="cls-3" points="76.4 29.33 83.32 33.22 90.14 29.19 90.06 21.25 83.15 17.35 76.32 21.39 76.4 29.33"/><polygon class="cls-2" points="77.65 136.94 73.32 134.51 69.05 137.03 69.1 142 73.42 144.44 77.7 141.91 77.65 136.94"/><polygon class="cls-9" points="91.08 102.65 91.03 98.28 87.23 96.13 83.47 98.36 83.51 102.72 87.32 104.87 91.08 102.65"/></svg>