<?xml version="1.0" encoding="UTF-8"?><svg id="Laag_1" xmlns="http://www.w3.org/2000/svg" viewBox="0 0 536.71 194.2"><defs><style>.cls-1{fill:#2179be;}.cls-2{fill:#307bbf;}.cls-3{fill:#b81178;}.cls-4{fill:#45a6b2;}.cls-5{fill:#005a6c;}.cls-6{fill:#29235c;}.cls-7{fill:#277c7f;}.cls-8{fill:#64358c;}.cls-9{fill:#312783;}.cls-10{fill:#93d5f6;}.cls-11{fill:#9a1c57;}.cls-12{fill:#e6007e;}.cls-13{fill:#eb5e27;}.cls-14{fill:#009fe3;}.cls-15{fill:#eb5b25;}</style></defs><path class="cls-6" d="M137.43,59.17l10.03,34.31h.2l10.1-34.31h9.24l-14.69,45.72h-9.9l-14.62-45.72h9.64Z"/><path class="cls-6" d="M183.21,59.17v18.22h16.75v-18.22h9.64v45.72h-9.64v-18.91h-16.75v18.91h-9.5v-45.72h9.5Z"/><path class="cls-6" d="M235.71,59.17c10.1,0,16.21,4.88,16.21,14.23,0,10.52-7.31,15.81-17.61,15.81h-4.72v15.68h-9.5v-45.72h15.62ZM242.15,74.16c0-5.98-3.32-7.22-8.84-7.22h-3.72v14.57h3.85c5.25,0,8.71-1.79,8.71-7.36Z"/><path class="cls-12" d="M281.69,74.29v15.61h6.65v2.89h-6.65v12.1h-3.45v-12.03h-19.6v-3.3l13.69-29.56,2.72,1.44-13.16,28.46h16.35v-6.05l.05-9.56h3.4Z"/><path class="cls-12" d="M297.97,98.84c1.79,1.31,6.11,3.78,11.9,3.78,5.05,0,10.7-1.58,10.7-9.76,0-6.32-5.32-8.18-10.97-10.04-6.11-1.99-12.63-4.12-12.63-12.38,0-7.15,5.38-12.1,13.42-12.1,5.91,0,10.9,2.96,13.76,5.91l-1.99,2.41c-3.46-3.23-7.31-5.23-11.83-5.23-4.25,0-9.84,1.86-9.84,8.59,0,6.19,4.92,7.91,11.16,9.9,6.11,1.92,12.29,4.33,12.29,12.86s-5.12,12.92-14.29,12.92c-6.31,0-11.9-2.68-13.36-3.99l1.66-2.89Z"/><path class="cls-12" d="M331.46,104.89l15.75-45.72h4.39l16.08,45.72h-3.52l-5.38-15.4h-18.67l-5.25,15.4h-3.39ZM341.16,86.39h16.55l-8.37-24.27-8.17,24.27Z"/><path class="cls-12" d="M402.56,59.17v2.96h-21.93v17.81h18.21v2.96h-18.21v22h-3.32v-45.72h25.25Z"/><path class="cls-12" d="M411.6,59.17h23.46v2.96h-20.14v17.94h17.28v2.96h-17.28v18.91h20.6v2.96h-23.92v-45.72Z"/><path class="cls-12" d="M471.74,59.17v2.96h-13.82v42.76h-3.32v-42.76h-13.62v-2.96h30.77Z"/><path class="cls-12" d="M507.82,59.17l-14.22,28.4v17.33h-3.32v-17.33l-14.55-28.4h3.85l12.43,24.61,12.03-24.61h3.79Z"/><path class="cls-6" d="M141.93,121.84c.33,1.16.65,2.48.65,4.05,0,3.38-1.37,5.89-4.34,5.89-1.94,0-2.97-.94-2.97-3.36v-6.58h.98v5.97c0,1.59.08,3.14,2.1,3.14,2.42,0,3.24-2.51,3.24-4.81,0-1.89-.37-3.16-.67-4.3h1Z"/><path class="cls-6" d="M145.94,118.24c.43,0,.79.35.79.82,0,.51-.37.84-.81.84s-.79-.33-.79-.84c0-.47.35-.82.81-.82ZM145.45,131.5v-9.66h.98v9.66h-.98Z"/><path class="cls-6" d="M150.69,131.5h-.98v-8.52l-.08-1.14h.9l.16,1.49c.31-.92,1.28-1.77,2.49-1.77.65,0,1.22.18,1.53.37l-.35.82c-.37-.2-.86-.35-1.36-.35-1.37,0-2.24,1.32-2.32,2.77v6.32Z"/><path class="cls-6" d="M157.34,117.85v3.99h2.91v.79h-2.91v6.54c0,1.41.55,1.81,1.53,1.81.75,0,1.28-.31,1.61-.53l.37.69c-.55.41-1.36.65-2.04.65-2.14,0-2.45-1.14-2.45-2.69v-11.23h.98Z"/><path class="cls-6" d="M169.91,121.84v8.37l.1,1.3h-.9l-.18-1.45c-.77,1.22-2.02,1.73-3.26,1.73-2.04,0-3.1-1.08-3.1-3.28v-6.66h.98v6.23c0,1.63.37,2.91,2.38,2.91,1.57,0,3.01-1.39,3.01-2.67v-6.46h.98Z"/><path class="cls-6" d="M180.51,129.93l.14,1.57h-.94l-.12-1.24-.04-.02c-.55.79-1.49,1.53-3.06,1.53-2.87,0-3.83-2.08-3.83-4.69,0-3.48,1.61-5.52,4.79-5.52.59,0,1.91.16,3.06.57v7.8ZM179.53,122.82c-.39-.2-1.32-.41-2.3-.41-2.69,0-3.59,2.06-3.59,4.81,0,1.77.57,3.75,2.93,3.75,1.94,0,2.97-1.3,2.97-2.55v-5.6Z"/><path class="cls-6" d="M184.77,117.87v10.86c0,1.71.29,2.24,1.37,2.24.49,0,.98-.16,1.34-.33l.26.73c-.33.22-.98.41-1.77.41-2.08,0-2.18-1.38-2.18-2.95v-10.96h.98Z"/><path class="cls-6" d="M193.98,131.5v-13.65h.98v5.4c.82-1.2,2.1-1.69,3.26-1.69,2.04,0,3.1,1.14,3.1,3.34v6.6h-.98v-6.21c0-1.53-.33-2.93-2.36-2.93-1.65,0-3.02,1.43-3.02,2.75v6.38h-.98Z"/><path class="cls-6" d="M211.91,121.84v8.37l.1,1.3h-.9l-.18-1.45c-.77,1.22-2.02,1.73-3.26,1.73-2.04,0-3.1-1.08-3.1-3.28v-6.66h.98v6.23c0,1.63.37,2.91,2.38,2.91,1.57,0,3.01-1.39,3.01-2.67v-6.46h.98Z"/><path class="cls-6" d="M215.22,131.5v-8.37l-.12-1.3h.84l.18,1.49c.71-1.16,1.92-1.77,3.08-1.77,1.36,0,2.34.57,2.89,1.98.63-1.34,1.91-1.98,3.14-1.98,2.06,0,3.16,1.26,3.16,3.46v6.48h-.98v-6.13c0-1.55-.35-3-2.36-3-1.53,0-2.75,1.32-2.75,2.61v6.52h-.98v-6.11c0-1.38-.22-3.02-2.36-3.02-1.59,0-2.77,1.39-2.77,2.75v6.38h-.98Z"/><path class="cls-6" d="M238.98,129.93l.14,1.57h-.94l-.12-1.24-.04-.02c-.55.79-1.49,1.53-3.06,1.53-2.87,0-3.83-2.08-3.83-4.69,0-3.48,1.61-5.52,4.79-5.52.59,0,1.91.16,3.06.57v7.8ZM238,122.82c-.39-.2-1.32-.41-2.3-.41-2.69,0-3.59,2.06-3.59,4.81,0,1.77.57,3.75,2.93,3.75,1.94,0,2.97-1.3,2.97-2.55v-5.6Z"/><path class="cls-6" d="M242.24,131.5v-8.37l-.08-1.3h.88l.18,1.51c.79-1.18,1.98-1.79,3.26-1.79,2.04,0,3.1,1.16,3.1,3.36v6.58h-.98v-6.15c0-1.63-.37-2.98-2.3-2.98-1.73,0-3.08,1.43-3.08,2.71v6.42h-.98Z"/><path class="cls-6" d="M258.24,135.63h-.98v-13.53c1.3-.33,2.32-.53,3.3-.53,3.08,0,4.36,1.71,4.36,4.99s-1.45,5.22-3.83,5.22c-1.12,0-2.14-.39-2.85-.9v4.75ZM260.59,122.41c-.79,0-1.71.14-2.36.37v7.03c.63.63,1.87,1.14,2.85,1.14,1.51,0,2.85-1.04,2.85-4.18,0-2.24-.45-4.36-3.34-4.36Z"/><path class="cls-6" d="M268.7,117.87v10.86c0,1.71.3,2.24,1.38,2.24.49,0,.98-.16,1.34-.33l.26.73c-.33.22-.98.41-1.77.41-2.08,0-2.18-1.38-2.18-2.95v-10.96h.98Z"/><path class="cls-6" d="M280.5,129.93l.14,1.57h-.94l-.12-1.24-.04-.02c-.55.79-1.49,1.53-3.06,1.53-2.87,0-3.83-2.08-3.83-4.69,0-3.48,1.61-5.52,4.79-5.52.59,0,1.91.16,3.06.57v7.8ZM279.52,122.82c-.39-.2-1.32-.41-2.3-.41-2.69,0-3.59,2.06-3.59,4.81,0,1.77.57,3.75,2.93,3.75,1.94,0,2.97-1.3,2.97-2.55v-5.6Z"/><path class="cls-6" d="M284.74,117.85v3.99h2.91v.79h-2.91v6.54c0,1.41.55,1.81,1.53,1.81.75,0,1.28-.31,1.61-.53l.37.69c-.55.41-1.36.65-2.04.65-2.14,0-2.45-1.14-2.45-2.69v-11.23h.98Z"/><path class="cls-6" d="M291.16,135.63h-.98v-14.85c0-1.24.32-3.12,2.99-3.12.73,0,1.75.26,2.18.49l-.33.79c-.47-.22-1.22-.43-1.96-.43-1.47,0-1.88.9-1.88,2.34v1h3.2v.79h-3.2v13Z"/><path class="cls-6" d="M299.29,121.56c1.3,0,3.85.41,3.85,4.79,0,3.89-1.81,5.42-4.2,5.42s-3.87-1.69-3.87-5.22c0-4.05,2.34-4.99,4.22-4.99ZM302.16,126.71c0-2.46-.79-4.3-2.99-4.3s-3.12,1.73-3.12,4.01c0,2.02.45,4.56,3.02,4.56,2.14,0,3.08-2.04,3.08-4.26Z"/><path class="cls-6" d="M306.89,131.5h-.98v-8.52l-.08-1.14h.9l.16,1.49c.31-.92,1.28-1.77,2.49-1.77.65,0,1.22.18,1.53.37l-.35.82c-.37-.2-.86-.35-1.36-.35-1.37,0-2.24,1.32-2.32,2.77v6.32Z"/><path class="cls-6" d="M312.6,131.5v-8.37l-.12-1.3h.84l.18,1.49c.71-1.16,1.92-1.77,3.08-1.77,1.36,0,2.34.57,2.89,1.98.63-1.34,1.9-1.98,3.14-1.98,2.06,0,3.16,1.26,3.16,3.46v6.48h-.98v-6.13c0-1.55-.35-3-2.36-3-1.53,0-2.75,1.32-2.75,2.61v6.52h-.98v-6.11c0-1.38-.22-3.02-2.36-3.02-1.59,0-2.77,1.39-2.77,2.75v6.38h-.98Z"/><path class="cls-6" d="M334.45,135.63h-.98v-14.85c0-1.24.32-3.12,2.99-3.12.73,0,1.75.26,2.18.49l-.33.79c-.47-.22-1.22-.43-1.96-.43-1.47,0-1.88.9-1.88,2.34v1h3.2v.79h-3.2v13Z"/><path class="cls-6" d="M342.58,121.56c1.3,0,3.85.41,3.85,4.79,0,3.89-1.81,5.42-4.2,5.42s-3.87-1.69-3.87-5.22c0-4.05,2.34-4.99,4.22-4.99ZM345.45,126.71c0-2.46-.79-4.3-2.99-4.3s-3.12,1.73-3.12,4.01c0,2.02.45,4.56,3.02,4.56,2.14,0,3.08-2.04,3.08-4.26Z"/><path class="cls-6" d="M350.18,131.5h-.98v-8.52l-.08-1.14h.9l.16,1.49c.31-.92,1.28-1.77,2.49-1.77.65,0,1.22.18,1.53.37l-.35.82c-.37-.2-.86-.35-1.36-.35-1.37,0-2.24,1.32-2.32,2.77v6.32Z"/><path class="cls-6" d="M359.84,130.13c.53.35,1.45.84,2.67.84s2.26-.63,2.26-1.96-1-1.71-2.26-2.04c-1.41-.37-2.93-.78-2.93-2.69s1.49-2.71,3.08-2.71c1.34,0,2.44.61,3.04,1.28l-.61.65c-.59-.61-1.45-1.12-2.55-1.12-.94,0-2.06.47-2.06,1.83,0,1.24,1.04,1.59,2.3,1.96,1.39.41,2.93.8,2.93,2.75s-1.36,2.87-3.24,2.87c-1.51,0-2.71-.57-3.06-.9l.43-.75Z"/><path class="cls-6" d="M375.49,129.93l.14,1.57h-.94l-.12-1.24-.04-.02c-.55.79-1.49,1.53-3.06,1.53-2.87,0-3.83-2.08-3.83-4.69,0-3.48,1.61-5.52,4.79-5.52.59,0,1.91.16,3.06.57v7.8ZM374.51,122.82c-.39-.2-1.32-.41-2.3-.41-2.69,0-3.59,2.06-3.59,4.81,0,1.77.57,3.75,2.93,3.75,1.94,0,2.97-1.3,2.97-2.55v-5.6Z"/><path class="cls-6" d="M379.73,135.63h-.98v-14.85c0-1.24.31-3.12,2.98-3.12.73,0,1.75.26,2.18.49l-.33.79c-.47-.22-1.22-.43-1.96-.43-1.47,0-1.89.9-1.89,2.34v1h3.2v.79h-3.2v13Z"/><path class="cls-6" d="M390.72,123.8c0,3.32-4.52,3.44-6.13,3.3.06,1.85.88,3.83,3.24,3.83,1.43,0,2.26-.71,2.53-.92l.49.69c-.61.51-1.63,1.08-3,1.08-2.95,0-4.22-2.08-4.22-5.01s1.61-5.2,4.4-5.2c1.77,0,2.69.96,2.69,2.24ZM387.99,122.35c-2.44,0-3.32,2.34-3.38,3.95,1.06.1,5.11.02,5.11-2.28,0-1.06-.71-1.67-1.73-1.67Z"/><path class="cls-6" d="M394.08,117.85v3.99h2.91v.79h-2.91v6.54c0,1.41.55,1.81,1.53,1.81.75,0,1.28-.31,1.61-.53l.37.69c-.55.41-1.36.65-2.04.65-2.14,0-2.45-1.14-2.45-2.69v-11.23h.98Z"/><path class="cls-6" d="M406.61,131.66c0,.96-.12,1.98-.37,2.71-.53,1.47-1.67,2.36-3.5,2.36-1.92,0-2.83-.94-2.83-2.4,0-1.67,1.36-2.83,2.24-3.38-1.53-.12-2.85-.83-2.85-3.24v-5.87h.98v5.48c0,1.61.16,2.91,2.59,2.91,1.49,0,2.79-1.08,2.79-2.61v-5.77h.94v9.82ZM402.82,135.92c2.06,0,2.81-1.75,2.81-4.16v-1.75c-2.77,1.1-4.73,2.22-4.73,4.22,0,1.12.71,1.69,1.92,1.69Z"/><path class="cls-6" d="M421.65,129.93l.14,1.57h-.94l-.12-1.24-.04-.02c-.55.79-1.49,1.53-3.06,1.53-2.87,0-3.83-2.08-3.83-4.69,0-3.48,1.61-5.52,4.79-5.52.59,0,1.91.16,3.06.57v7.8ZM420.66,122.82c-.39-.2-1.32-.41-2.3-.41-2.69,0-3.59,2.06-3.59,4.81,0,1.77.57,3.75,2.93,3.75,1.94,0,2.97-1.3,2.97-2.55v-5.6Z"/><path class="cls-6" d="M424.45,130.13c.53.35,1.45.84,2.67.84s2.26-.63,2.26-1.96-1-1.71-2.26-2.04c-1.41-.37-2.93-.78-2.93-2.69s1.49-2.71,3.08-2.71c1.34,0,2.44.61,3.04,1.28l-.61.65c-.59-.61-1.45-1.12-2.55-1.12-.94,0-2.06.47-2.06,1.83,0,1.24,1.04,1.59,2.3,1.96,1.39.41,2.93.8,2.93,2.75s-1.36,2.87-3.24,2.87c-1.51,0-2.71-.57-3.06-.9l.43-.75Z"/><path class="cls-6" d="M432.32,130.13c.53.35,1.45.84,2.67.84s2.26-.63,2.26-1.96-1-1.71-2.26-2.04c-1.41-.37-2.93-.78-2.93-2.69s1.49-2.71,3.08-2.71c1.34,0,2.44.61,3.04,1.28l-.61.65c-.59-.61-1.45-1.12-2.55-1.12-.94,0-2.06.47-2.06,1.83,0,1.24,1.04,1.59,2.3,1.96,1.4.41,2.93.8,2.93,2.75s-1.36,2.87-3.24,2.87c-1.51,0-2.71-.57-3.06-.9l.43-.75Z"/><path class="cls-6" d="M447.13,123.8c0,3.32-4.52,3.44-6.13,3.3.06,1.85.88,3.83,3.24,3.83,1.43,0,2.26-.71,2.53-.92l.49.69c-.61.51-1.63,1.08-3,1.08-2.95,0-4.22-2.08-4.22-5.01s1.61-5.2,4.4-5.2c1.77,0,2.69.96,2.69,2.24ZM444.4,122.35c-2.44,0-3.32,2.34-3.38,3.95,1.06.1,5.11.02,5.11-2.28,0-1.06-.71-1.67-1.73-1.67Z"/><path class="cls-6" d="M449.05,130.13c.53.35,1.45.84,2.67.84s2.26-.63,2.26-1.96-1-1.71-2.26-2.04c-1.41-.37-2.93-.78-2.93-2.69s1.49-2.71,3.08-2.71c1.34,0,2.44.61,3.04,1.28l-.61.65c-.59-.61-1.45-1.12-2.55-1.12-.94,0-2.06.47-2.06,1.83,0,1.24,1.04,1.59,2.3,1.96,1.39.41,2.93.8,2.93,2.75s-1.36,2.87-3.24,2.87c-1.51,0-2.71-.57-3.06-.9l.43-.75Z"/><path class="cls-6" d="M456.92,130.13c.53.35,1.45.84,2.67.84s2.26-.63,2.26-1.96-1-1.71-2.26-2.04c-1.41-.37-2.93-.78-2.93-2.69s1.49-2.71,3.08-2.71c1.34,0,2.44.61,3.04,1.28l-.61.65c-.59-.61-1.45-1.12-2.55-1.12-.94,0-2.06.47-2.06,1.83,0,1.24,1.04,1.59,2.3,1.96,1.4.41,2.93.8,2.93,2.75s-1.36,2.87-3.24,2.87c-1.51,0-2.71-.57-3.06-.9l.43-.75Z"/><path class="cls-6" d="M465.29,131.5v-8.37l-.12-1.3h.84l.18,1.49c.71-1.16,1.92-1.77,3.08-1.77,1.36,0,2.34.57,2.89,1.98.63-1.34,1.91-1.98,3.14-1.98,2.06,0,3.16,1.26,3.16,3.46v6.48h-.98v-6.13c0-1.55-.35-3-2.36-3-1.53,0-2.75,1.32-2.75,2.61v6.52h-.98v-6.11c0-1.38-.22-3.02-2.36-3.02-1.59,0-2.77,1.39-2.77,2.75v6.38h-.98Z"/><path class="cls-6" d="M488.3,123.8c0,3.32-4.52,3.44-6.13,3.3.06,1.85.88,3.83,3.24,3.83,1.43,0,2.26-.71,2.53-.92l.49.69c-.61.51-1.63,1.08-3,1.08-2.95,0-4.22-2.08-4.22-5.01s1.61-5.2,4.4-5.2c1.77,0,2.69.96,2.69,2.24ZM485.57,122.35c-2.44,0-3.32,2.34-3.38,3.95,1.06.1,5.11.02,5.11-2.28,0-1.06-.71-1.67-1.73-1.67Z"/><path class="cls-6" d="M490.67,131.5v-8.37l-.08-1.3h.88l.18,1.51c.78-1.18,1.98-1.79,3.26-1.79,2.04,0,3.1,1.16,3.1,3.36v6.58h-.98v-6.15c0-1.63-.37-2.98-2.3-2.98-1.73,0-3.08,1.43-3.08,2.71v6.42h-.98Z"/><path class="cls-6" d="M502.26,117.85v3.99h2.91v.79h-2.91v6.54c0,1.41.55,1.81,1.53,1.81.75,0,1.28-.31,1.61-.53l.37.69c-.55.41-1.36.65-2.04.65-2.14,0-2.45-1.14-2.45-2.69v-11.23h.98Z"/><path class="cls-15" d="M102.64,35.36c-1.84-4.37-5.07-7.7-8.97-10.03l.07,7.19,7.01,3.95,1.89-1.12Z"/><path class="cls-14" d="M100.83,44.52l3.44,1.94c.01-.08.02-.15.03-.23.16-1.29.21-2.61.13-3.91-.15-2.38-.86-4.72-1.77-6.91,0-.02-.01-.03-.02-.05l-1.89,1.12.08,8.04Z"/><path class="cls-7" d="M101,60.61l6.49-3.83c-.65-.83-1.31-1.65-1.97-2.48-.87-1.09-2.07-2.18-2.1-3.66-.03-1.38.63-2.8.86-4.18l-3.44-1.94-6.93,4.09.08,8.05,7.01,3.95Z"/><path class="cls-5" d="M101.08,68.66l4.99,2.81c.28-.26.61-.47.77-.88.32-.83.09-1.75-.13-2.57-.12-.42-.58-1.25-.55-1.67.06-.67.69-.74,1.21-1.01,1.35-.68,4.04-2,3.56-3.91-.19-.75-.88-1.39-1.35-1.99-.67-.85-1.34-1.71-2.01-2.56-.03-.04-.06-.07-.09-.11l-6.49,3.83.08,8.05Z"/><path class="cls-2" d="M101.26,85.97c2.28-.2,4.31-.95,4.8-3.28.06-.28.08-.56.07-.83l-4.89,2.89v1.22Z"/><path class="cls-14" d="M105.38,76.22c.33-.9,1.01-1.57.71-2.58-.19-.65-.8-.96-.32-1.8.08-.14.19-.26.31-.37l-4.99-2.81-6.56,3.88.05,4.97-.36.21.03,3.07,7.01,3.96,4.89-2.89c-.04-1.93-1.43-3.77-.75-5.64Z"/><polygon class="cls-2" points="87.12 65.73 87.48 65.52 92.22 68.19 95.82 66.06 95.77 60.76 91.15 58.16 86.59 60.85 86.6 61.94 87.08 62.21 87.12 65.73"/><polygon class="cls-3" points="94.52 72.54 94.49 69.47 92.22 68.19 87.48 65.52 87.12 65.73 87.12 66.43 87.16 70.26 80.59 74.15 80.63 77.66 87.65 81.61 94.21 77.73 94.57 77.51 94.52 72.54"/><polygon class="cls-9" points="87.12 66.43 87.12 65.73 87.08 62.21 86.6 61.94 80.06 58.27 73.14 62.36 73.19 66.77 77.96 69.47 78 73.1 80.23 74.36 80.59 74.15 87.16 70.26 87.12 66.43"/><polygon class="cls-12" points="73.19 66.77 72.25 66.24 66.59 69.59 66.66 76.14 72.38 79.37 78.03 76.03 78 73.1 77.96 69.47 73.19 66.77"/><polygon class="cls-15" points="68.28 84.07 68.24 80.41 65.05 78.62 61.91 80.48 61.95 84.14 65.13 85.93 68.28 84.07"/><polygon class="cls-11" points="66.79 102.51 66.75 98.72 63.46 96.86 60.19 98.79 60.23 102.58 63.53 104.44 66.79 102.51"/><polygon class="cls-8" points="65.56 53.52 60.9 50.9 56.31 53.61 56.37 58.96 61.01 61.58 65.62 58.86 65.56 53.52"/><polygon class="cls-15" points="68.39 129.7 73.08 132.35 77.71 129.61 77.66 124.22 72.97 121.57 68.33 124.31 68.39 129.7"/><polygon class="cls-11" points="62.81 143.83 65.19 145.17 67.54 143.78 67.51 141.05 65.14 139.71 62.79 141.1 62.81 143.83"/><polygon class="cls-12" points="98.87 142.52 93.86 139.69 88.9 142.62 88.96 148.37 93.98 151.2 98.93 148.27 98.87 142.52"/><polygon class="cls-15" points="87.45 153.94 87.41 150.28 84.22 148.48 81.08 150.34 81.11 154 84.3 155.8 87.45 153.94"/><polygon class="cls-8" points="91.45 131.36 86.75 128.72 82.12 131.46 82.18 136.85 86.87 139.5 91.51 136.75 91.45 131.36"/><polygon class="cls-4" points="97.27 43.14 97.21 37.2 92.03 34.28 86.92 37.3 86.92 37.31 86.98 43.25 92.16 46.16 97.27 43.14"/><polygon class="cls-9" points="72.74 47.85 68.73 50.21 67.63 49.59 67.69 55.48 73.59 58.8 79.41 55.36 79.37 51.12 72.74 47.39 72.74 47.85"/><polygon class="cls-14" points="72.74 47.85 72.74 47.39 71.27 46.56 71.27 46.55 71.22 42.37 68.64 40.91 64.64 43.28 64.69 47.93 67.63 49.59 68.73 50.21 72.74 47.85"/><polygon class="cls-2" points="86.92 37.31 86.92 37.3 79.01 32.85 71.17 37.47 71.23 42.47 71.27 46.55 71.27 46.56 72.7 47.37 79.18 51.01 79.19 51.02 87.02 46.4 86.98 43.25 86.98 43.24 86.92 37.31"/><polygon class="cls-1" points="86.81 36.62 86.81 36.62 86.87 42.71 86.88 42.71 86.81 36.62 86.81 36.62"/><polygon class="cls-4" points="37.52 148.33 37.68 142.53 32.74 139.49 27.63 142.26 27.47 148.06 32.42 151.1 37.52 148.33"/><polygon class="cls-7" points="35.95 124.98 31.7 122.59 27.51 125.07 27.56 129.95 31.8 132.34 36 129.86 35.95 124.98"/><polygon class="cls-9" points="49.13 137.13 44.76 139.71 42.81 138.61 42.87 144.56 49.3 148.17 55.64 144.42 55.59 139.27 49.11 135.63 49.13 137.13"/><polygon class="cls-14" points="49.11 135.63 49.11 135.62 49.08 133.47 49.07 132.06 44.66 129.57 40.3 132.15 40.35 137.22 42.81 138.61 44.76 139.71 49.13 137.13 49.11 135.63"/><polygon class="cls-14" points="101.54 112.32 101.54 112.31 101.52 110.4 101.5 109.15 97.59 106.95 93.73 109.24 93.77 113.73 95.95 114.96 97.69 115.93 101.56 113.65 101.54 112.32"/><polygon class="cls-3" points="65.63 112.43 61.26 109.96 60.89 110.18 60.94 114.71 54.37 118.59 54.41 122.1 55.29 122.6 57.03 121.57 63.17 125.03 68.35 121.96 68.32 119.04 65.68 117.55 65.63 112.43"/><polygon class="cls-4" points="76.23 117.44 76.16 111.36 70.86 108.37 65.62 111.47 65.63 112.43 65.68 117.55 68.32 119.04 70.99 120.54 76.23 117.44"/><polygon class="cls-7" points="103.14 127.36 103.07 120.44 97.04 117.05 91.08 120.57 91.15 127.49 97.18 130.89 103.14 127.36"/><polygon class="cls-4" points="89.27 109.75 89.19 101.78 82.25 97.88 75.39 101.93 75.41 103.19 75.48 109.89 78.92 111.83 82.42 113.8 89.27 109.75"/><polygon class="cls-9" points="60.89 110.18 60.86 106.66 53.84 102.71 46.92 106.8 46.99 113.75 48.24 113.02 53.25 115.84 53.27 118.39 54.01 118.8 54.37 118.59 60.94 114.71 60.89 110.18"/><polygon class="cls-12" points="48.24 113.02 46.99 113.75 43.28 115.94 43.34 121.69 48.36 124.52 53.31 121.59 53.27 118.39 53.25 115.84 48.24 113.02"/><polygon class="cls-2" points="65.14 126.14 63.17 125.03 57.03 121.57 55.29 122.6 49.01 126.31 49.07 132.06 49.08 132.06 49.09 133.46 49.11 135.63 55.59 139.27 57.23 140.19 65.24 135.46 65.14 126.14"/><polygon class="cls-1" points="49.09 133.46 49.08 132.06 49.07 132.06 49.08 133.47 49.09 133.46"/><polygon class="cls-1" points="49.11 135.62 49.11 135.63 49.09 133.46 49.08 133.47 49.11 135.62"/><polygon class="cls-9" points="56.33 27.51 58.04 26.5 58.01 24.52 56.29 23.55 54.59 24.56 54.61 26.54 56.33 27.51"/><polygon class="cls-10" points="49.22 52.47 52.83 50.34 52.79 46.14 49.14 44.09 45.52 46.22 45.57 50.42 49.22 52.47"/><polygon class="cls-9" points="54.57 38.15 54.56 37.08 51.5 35.36 48.47 37.15 48.51 40.66 51.58 42.39 53.26 41.39 53.23 38.94 54.57 38.15"/><polygon class="cls-2" points="61.99 38.85 57.58 36.37 54.57 38.15 53.23 38.94 53.26 41.39 53.29 44 57.69 46.48 62.05 43.91 61.99 38.85"/><polygon class="cls-9" points="94.98 163.18 91.53 161.24 88.12 163.25 88.16 167.21 91.61 169.16 95.02 167.14 94.98 163.18"/><polygon class="cls-9" points="40.7 112.63 38.19 111.22 35.72 112.68 35.75 115.55 38.25 116.97 40.73 115.5 40.7 112.63"/><polygon class="cls-10" points="67.08 21.72 65.06 20.58 63.06 21.76 63.08 24.09 65.11 25.23 67.11 24.04 67.08 21.72"/><polygon class="cls-10" points="79.87 23.97 75.4 21.45 70.98 24.06 71.04 29.19 75.5 31.71 79.92 29.1 79.87 23.97"/><polygon class="cls-4" points="56.95 64.3 54.25 62.78 51.59 64.36 51.62 67.45 54.32 68.97 56.98 67.4 56.95 64.3"/><polygon class="cls-10" points="22.99 135.66 20.29 134.14 17.62 135.71 17.66 138.81 20.35 140.33 23.02 138.75 22.99 135.66"/><polygon class="cls-10" points="98.43 130.16 97.18 130.89 96.08 130.27 94.69 131.11 94.76 134.15 97.42 135.61 100.02 134.03 99.95 130.99 98.43 130.16"/><polygon class="cls-9" points="87.66 100.51 87.66 100.51 87.66 100.51 87.66 100.51"/><polygon class="cls-2" points="94.56 118.31 94.51 113.44 94.48 110.93 93.76 110.52 93.75 110.53 93.75 110.52 91.61 109.31 87.13 106.8 87.12 106.81 79.88 111.08 79.9 112.38 79.97 119.51 87.31 123.64 91 121.46 94.57 119.35 94.56 118.31"/><polygon class="cls-1" points="93.75 110.52 93.75 110.53 93.76 110.52 93.75 110.52"/><path class="cls-12" d="M90.82,87.61c.88-1.65,2.83-1.63,4.54-1.69,1.5-.05,3.8.23,5.89.05v-1.22s-7.02-3.96-7.02-3.96l-5.96,3.53,2.53,1.42.02,1.86Z"/><path class="cls-13" d="M88.84,90.21c-.02-.2-.01-.1,0,0h0Z"/><path class="cls-13" d="M88.84,90.21h0c0,.1.02.19,0,0Z"/><path class="cls-15" d="M84.94,96.57l5.94-3.51-.06-5.45-.02-1.86-2.53-1.42-3.85-2.17-6.29,3.73.06,6.15,6.74,3.8v.74ZM88.84,90.21c.02.19,0,.1,0,0,0-.1-.02-.2,0,0Z"/><polygon class="cls-3" points="84.98 99.89 84.94 96.57 84.94 95.83 78.2 92.03 77.89 91.86 76.06 92.94 76.1 96.88 71.83 99.41 70.95 98.91 71.01 104.06 75.44 106.56 78.06 108.04 85.02 103.92 84.98 99.89"/><polygon class="cls-12" points="76.1 96.88 76.06 92.94 76.05 91.91 71.73 89.47 67.45 92 67.5 96.97 70.95 98.91 71.83 99.41 76.1 96.88"/><polygon class="cls-3" points="53.42 94.46 58.26 97.19 63.04 94.36 62.98 88.8 58.15 86.07 53.36 88.9 53.42 94.46"/><polygon class="cls-3" points="80.01 33.41 86.93 37.31 93.75 33.27 93.66 25.33 86.76 21.44 79.92 25.48 80.01 33.41"/><polygon class="cls-2" points="81.25 141.02 76.92 138.59 72.65 141.11 72.71 146.08 77.03 148.52 81.3 145.99 81.25 141.02"/><polygon class="cls-9" points="94.68 106.73 94.64 102.36 90.83 100.22 87.07 102.44 87.12 106.81 90.92 108.95 94.68 106.73"/></svg>